/* XPM */
static char *result[] = {
/* columns rows colors chars-per-pixel */
"64 64 145 2 ",
"   c #010101",
".  c #03030B",
"X  c #0C0C0B",
"o  c #100F0F",
"O  c #10100F",
"+  c #000113",
"@  c #00011C",
"#  c #15001D",
"$  c #141413",
"%  c #181817",
"&  c #1C1C1B",
"*  c #201F1E",
"=  c #21201F",
"-  c #000223",
";  c #0A0B22",
":  c #1B1C26",
">  c #000334",
",  c #00033B",
"<  c #220B2A",
"1  c #2A003A",
"2  c #270634",
"3  c #242424",
"4  c #282827",
"5  c #2C2C2B",
"6  c #302F2E",
"7  c #30302F",
"8  c #202030",
"9  c #333332",
"0  c #383736",
"q  c #393837",
"w  c #3D3C3B",
"e  c #402F3E",
"r  c #44303F",
"t  c #403F3D",
"y  c #41413F",
"u  c #000445",
"i  c #00044C",
"p  c #000453",
"a  c #00055B",
"s  c #151857",
"d  c #3E124D",
"f  c #303045",
"g  c #000663",
"h  c #00066A",
"j  c #0E1361",
"k  c #141865",
"l  c #000672",
"z  c #000679",
"x  c #252867",
"c  c #441B53",
"v  c #43284C",
"b  c #443D42",
"n  c #4F354C",
"m  c #51384E",
"M  c #4A2953",
"N  c #543950",
"B  c #5B3257",
"V  c #4F0B69",
"C  c #5D087D",
"Z  c #612079",
"A  c #772770",
"S  c #613171",
"D  c #444342",
"F  c #484745",
"G  c #4A4947",
"H  c #4E4D4A",
"J  c #4C4348",
"K  c #52514F",
"L  c #555553",
"P  c #585754",
"I  c #5D5D59",
"U  c #5A5956",
"Y  c #65525F",
"T  c #605F5C",
"R  c #62615E",
"E  c #75466E",
"W  c #774372",
"Q  c #676663",
"!  c #686763",
"~  c #6A6965",
"^  c #6E6D6A",
"/  c #706F6B",
"(  c #71706C",
")  c #717170",
"_  c #7D7D7D",
"`  c #000786",
"'  c #00078B",
"]  c #01088B",
"[  c #020985",
"{  c #181E87",
"}  c #151B8D",
"|  c #000792",
" . c #010994",
".. c #00089C",
"X. c #0109A3",
"o. c #0009AC",
"O. c #0009B0",
"+. c #610086",
"@. c #71009C",
"#. c #7B239D",
"$. c #7E00AF",
"%. c #903D88",
"&. c #83299C",
"*. c #8100B4",
"=. c #8805BA",
"-. c #874680",
";. c #894981",
":. c #95448C",
">. c #B542AA",
",. c #BA45AF",
"<. c #C443B7",
"1. c #9403CC",
"2. c #9609CC",
"3. c #9B00D6",
"4. c #9D00DA",
"5. c #A109DB",
"6. c #AB11DF",
"7. c #BB28D2",
"8. c #A400E3",
"9. c #AB00EC",
"0. c #BA10EB",
"q. c #AE00F1",
"w. c #B100F4",
"e. c #B600FC",
"r. c #B800FF",
"t. c #C222E0",
"y. c #D046C5",
"u. c #D545C8",
"i. c #DB45CE",
"p. c #E646D8",
"a. c #8C8C8C",
"s. c #939393",
"d. c #A7A7A7",
"f. c gray71",
"g. c #BCBCBC",
"h. c #C0C0C0",
"j. c #CBCBCB",
"k. c LightGray",
"l. c #D8D8D7",
"z. c #DBDBDB",
"x. c #E4E4E4",
"c. c #ECECEC",
"v. c #F4F4F4",
"b. c #FCFCFC",
"n. c None",
/* pixels */
"n.n.n.n.n.n.n.n.n.n.n.n.n.n.n.n.n.n.n.n.n.n.n.n.n.n.n.n.n.n.n.n.n.n.n.n.n.n.n.n.n.n.n.n.n.n.n.n.n.n.n.n.n.n.n.n.n.n.n.n.n.n.n.n.",
"n.n.n.n.n.n.n.n.n.n.n.n.n.n.n.n.n.n.n.n.n.n.n.n.n.n.n.n.n.n.n.n.n.n.n.n.n.n.n.n.n.n.n.n.n.n.n.n.n.n.n.n.n.n.n.n.n.n.n.n.n.n.n.n.",
"n.n.n.n.n.n.n.n.n.n.n.n.n.n.n.n.n.n.n.n.n.n.n.n.n.n.n.n.n.n.n.n.n.n.n.n.n.n.n.n.n.n.n.n.n.n.n.n.n.n.n.n.n.n.n.n.n.n.n.n.n.n.n.n.",
"n.n.n.n.n.n.n.n.n.n.n.n.n.n.n.n.n.n.n.n.n.n.n.n.n.n.n.n.n.n.n.n.n.n.n.n.n.n.n.n.n.n.n.n.n.n.n.n.n.n.n.n.n.n.n.n.n.n.n.n.n.n.n.n.",
"n.n.n.n.n.n.n.n.n.n.n.n.n.n.n.n.n.n.n.n.n.n.n.n.n.n.n.n.n.n.n.n.n.n.n.n.n.n.n.n.n.n.n.n.n.n.n.n.n.n.n.n.n.n.n.n.n.n.n.n.n.n.n.n.",
"n.n.n.n.n.n.n.n.n.n.n.n.n.n.n.n.n.n.n.n.n.n.n.n.n.n.n.n.n.n.n.n.n.n.n.n.n.n.n.n.n.n.D n.n.n.n.n.n.n.n.n.n.n.n.n.n.n.n.n.n.n.n.n.",
"n.n.n.n.n.n.n.n.n.n.n.n.n.n.n.n.n.n.n.n.n.D 6 n.n.n.n.n.n.n.T ! / R G ^ U n.n.n.n.H G n.n.n.n.n.n.n.n.n.n.n.n.n.n.n.n.n.n.n.n.n.",
"n.n.n.n.n.n.n.n.n.n.n.n.n.n.n.n.n.n.n.n.& F G 3 n.n.n.( / / ! R I ~ ^ ~ ( ^ H n.D D D n.n.n.n.n.n.n.n.n.n.n.n.n.n.n.n.n.n.n.n.n.",
"n.n.n.n.n.n.n.n.n.n.n.n.n.n.n.n.n.n.n.n.4 D G D = n.  ! ^ ~ ~ ! Y N 9 3 6 5 I D t w t n.n.n.n.n.n.n.n.n.n.n.n.n.n.n.n.n.n.n.n.n.",
"n.n.n.n.n.n.n.n.n.n.n.n.n.n.n.n.n.n.n.n.3 D F D G 4 * 9 t q w q r B 7 y y 6 X 0 w w D n.n.n.n.n.n.n.n.n.n.n.n.n.n.n.n.n.n.n.n.n.",
"n.n.n.n.n.n.n.n.n.n.n.n.n.n.n.n.n.n.n.n.% q G w D G K y y R R ~ E A y D w w   q 4 q t n.n.n.n.n.n.n.n.n.n.n.n.n.n.n.n.n.n.n.n.n.",
"n.n.n.n.n.n.n.n.n.n.n.n.n.n.n.n.n.n.n.n.. 9 y G y D 4 y y q L ^ ;.%.D y 9 6 9 w 9 q y n.n.n.n.n.n.n.n.n.n.n.n.n.n.n.n.n.n.n.n.n.",
"n.n.n.n.n.n.n.n.n.n.n.n.n.n.n.n.n.n.n.n.n.6 t y y F y 3 y w 0 9 ,.:.t 9 & 5 D q w 9 D n.n.n.n.n.n.n.n.n.n.n.n.n.n.n.n.n.n.n.n.n.",
"n.n.n.n.n.n.n.n.n.n.n.n.n.n.n.n.n.n.n.n.n.* 7 7 0 y y t q 6 P t u.:.w 6 6 w t 9 w q D   n.n.n.n.n.n.n.n.n.n.n.n.n.n.n.n.n.n.n.n.",
"n.n.n.n.n.n.n.n.n.n.n.n.n.n.n.n.n.n.n.n.n.X 9 q 6 q q q y w 0 m y.,.w 9 q w 9 w 0 q D X n.n.n.n.n.n.n.n.n.n.n.n.n.n.n.n.n.n.n.n.",
"n.n.n.n.n.n.n.n.n.n.n.n.n.n.n.n.n.n.n.n.n.o 3 w y w y 9 t w 7 t >.<.9 9 9 9 9 9 5 y q % n.n.n.n.n.n.n.n.n.n.n.n.n.n.n.n.n.n.n.n.",
"n.n.n.n.n.n.n.n.n.n.n.n.n.n.n.n.n.n.n.n.n.n.+.4 t t t w q q 0 t <.i.q 9 7 7 9 6 D D C # n.n.n.n.n.n.n.n.n.n.n.n.n.n.n.n.n.n.n.n.",
"n.n.n.n.n.n.n.n.n.n.n.n.n.n.n.n.n.n.n.n.n.n.3.@.3 q y 0 q 9 w t u.i.v 5 5 & 4 F D Z q.e.n.n.n.n.n.n.n.n.n.n.n.n.n.n.n.n.n.n.n.n.",
"n.n.n.n.n.n.n.n.n.n.n.n.n.n.n.n.n.n.n.n.n.# 3.r.w.c q y 9 4 9 m p.i.m 9 w D D D c q.8.*.n.n.n.n.n.n.n.n.n.n.n.n.n.n.n.n.n.n.n.n.",
"n.n.n.n.n.n.n.n.n.n.n.n.n.n.n.n.n.n.n.n.n.X 2 3.e.r.2.M b F F -.i.i.W D w 9 v 2.q.e.@.  n.n.n.n.n.n.n.n.n.n.n.n.n.n.n.n.n.n.n.n.",
"n.n.n.n.n.n.n.n.n.n.n.n.n.n.n.n.n.n.n.n.. 3 & . 1 =.e.q.5.#.S &.0.t.7.6.r.e.r.r.e.$.      n.n.n.n.n.n.n.n.n.n.n.n.n.n.n.n.n.n.n.",
"n.n.n.n.n.n.n.n.n.n.n.n.n.n.n.n.n.n.n.n.7 9 7 y % O < e.r.r.r.r.r.r.r.5.e.w.9.1.  X 4 =     X n.n.n.n.n.n.n.n.n.n.n.n.n.n.n.n.n.",
"n.n.n.n.n.n.n.n.n.n.n.n.n.n.n.n.n.n.n.n.0 7 7 0 3 3 X X V *.q.e.9.9.8.8.9.$.      & 5 9 9 w U L n.n.n.n.n.n.n.n.n.n.n.n.n.n.n.n.",
"n.n.n.n.n.n.n.n.n.n.n.n.n.n.n.n.n.n.n.7 7 0 7 = 4 y X     .                         5 0 q w 7 5 9 n.n.n.n.n.n.n.n.n.n.n.n.n.n.n.",
"n.n.n.n.n.n.n.n.n.n.n.n.n.n.n.n.n.n.5 7 7 w 0 y q P                               X w 9 3 & 5 4 5 n.n.n.n.n.n.n.n.n.n.n.n.n.n.n.",
"n.n.n.n.n.n.n.n.n.n.n.n.n.n.n.n.n.n.5 6 5 t w w y G =     . % % % & & % $ & = .     D 9 = % 4 4 4 4 n.n.n.n.n.n.n.n.n.n.n.n.n.n.",
"n.n.n.n.n.n.n.n.n.n.n.n.n.n.n.n.n.n.5 5 w y t w t w t   X & = 3 4 4 4 4 4 4 3 X   X w 9 & % 9 3 4 5 n.n.n.n.n.n.n.n.n.n.n.n.n.n.",
"n.n.n.n.n.n.n.n.n.n.n.n.n.n.n.n.n.n.O 3 q w y w t H X X % = 3 3 3 4 3 3 3 & 3 X   X 9 5 & X 7 4 9 5 n.n.n.n.n.n.n.n.n.n.n.n.n.n.",
"n.n.n.n.n.n.n.n.n.n.n.n.n.n.n.n.n.n.= 4 7 t w w y G   . = 4 3 = 3 3 3 3 3 3 =     & 9 5 $ & 9 3 7 4 n.n.n.n.n.n.n.n.n.n.n.n.n.n.",
"n.n.n.n.n.n.n.n.n.n.n.n.n.n.n.n.n.n.= 5 9 t q D D q     $ 4 4 3 & & = & & % X     w 9 4 5 4 3 3 5 5 n.n.n.n.n.n.n.n.n.n.n.n.n.n.",
"n.n.n.n.n.n.n.n.n.n.n.n.n.n.n.n.n.n.& 6 9 t q y y D t &     X                 X w w 9 3 4 7 o 5 5 4 n.n.n.n.n.n.n.n.n.n.n.n.n.n.",
"n.n.n.n.n.n.n.n.n.n.n.n.n.n.n.n.n.n.= 5 6 w w t D y w L F 3 $   X %     X G G w 9 7 5 4 5 7 $ 9 4 n.n.n.n.n.n.n.n.n.n.n.n.n.n.n.",
"n.n.n.n.n.n.n.n.n.n.n.n.n.n.n.n.n.n.4 6 5 w w w y t y y w w D D l.k.9 ^ D 0 9 5 = 5 6 3 6 6 4 9 $ n.n.n.n.n.n.n.n.n.n.n.n.n.n.n.",
"n.n.n.n.n.n.n.n.n.n.n.n.n.n.n.n.n.n.3 5 5 w w w t t w y w w 9 q c.v.v.c.4 9 9 5 7 5 6 3 6 4 7 4 n.n.n.n.n.n.n.n.n.n.n.n.n.n.n.n.",
"n.n.n.n.n.n.n.n.n.n.n.n.n.n.n.n.n.n.% 6 5 w w w w w D D w w D w v.b.x.b.s.3 5 5 4 6 5 : 6 5 9 6 n.n.n.n.n.n.n.n.n.n.n.n.n.n.n.n.",
"n.n.n.n.n.n.n.n.n.n.n.n.n.n.n.n.n.n.  4 6 q w w w w y D D D D ) b.c.l.b.v.& 4 & 4 7 & o 6 7 5 n.n.n.n.n.n.n.n.n.n.n.n.n.n.n.n.n.",
"n.n.n.n.n.n.n.n.n.n.n.n.n.n.n.n.n.n.  & 9 9 9 q q 0 y D D D w l.c.h.l.b.b.X 5 4 4 9   X 9 9 % n.n.n.n.n.n.n.n.n.n.n.n.n.n.n.n.n.",
"n.n.n.n.n.n.n.n.n.n.n.n.n.n.n.n.n.n.n.  9 9 9 0 9 9 w D D y L v.x.^ x.b.b._ 3 9 5 3   4 9 3 n.n.n.n.n.n.n.n.n.n.n.n.n.n.n.n.n.n.",
"n.n.n.n.n.n.n.n.n.n.n.n.n.n.n.n.n.n.n.n.& 9 3 0 0 9 w D q w a.c.j.  f.v.b.c.o 5 5 $ 5 9 4 n.n.n.n.n.n.n.n.n.n.n.n.n.n.n.n.n.n.n.",
"n.n.n.n.n.n.n.n.n.n.n.n.n.n.n.n.n.n.n.n.n.5 5 9 5 5 7 9 9 D f.c.a.    j.b.b.w X & 4 9 4 n.n.n.n.n.n.n.n.n.n.n.n.n.n.n.n.n.n.n.n.",
"n.n.n.n.n.n.n.n.n.n.n.n.n.n.n.n.n.n.n.n.n.n.& 5 5 5 4 4 0 a.d.v.P     X k.b.b.  3 9 4   n.n.n.n.n.n.n.n.n.n.n.n.n.n.n.n.n.n.n.n.",
"n.n.n.n.n.n.n.n.n.n.n.n.n.n.n.n.n.n.n.n.n.n.n.  = 5 9 5 7 x.c.b.        _ c.k.3 9 3   n.n.n.n.n.n.n.n.n.n.n.n.n.n.n.n.n.n.n.n.n.",
"n.n.n.n.n.n.n.n.n.n.n.n.n.n.n.n.n.n.n.n.n.n.X &   % 4 5 3 j.d.            ! g.7 &     n.n.n.n.n.n.n.n.n.n.n.n.n.n.n.n.n.n.n.n.n.",
"n.n.n.n.n.n.n.n.n.n.n.n.n.n.n.n.n.n.n.n.n.9 D q   X X $ $ %       4 %         .   7 q . n.n.n.n.n.n.n.n.n.n.n.n.n.n.n.n.n.n.n.n.",
"n.n.n.n.n.n.n.n.n.n.n.n.n.n.n.n.n.n.n.n.n.w D 6   w 3 X % =       5 3   X   X     6 D & n.n.n.n.n.n.n.n.n.n.n.n.n.n.n.n.n.n.n.n.",
"n.n.n.n.n.n.n.n.n.n.n.n.n.n.n.n.n.n.n.n.n.D D 3 4 y 3 & 4 & =     7 3 X 5 X o 9 & & D 9 n.n.n.n.n.n.n.n.n.n.n.n.n.n.n.n.n.n.n.n.",
"n.n.n.n.n.n.n.n.n.n.n.n.n.n.n.n.n.n.n.n.5 F y 9 y w & = 9 & 7 %   9 3 % w &   9 q % y D n.n.n.n.n.n.n.n.n.n.n.n.n.n.n.n.n.n.n.n.",
"n.n.n.n.n.n.n.n.n.n.n.n.n.n.n.n.n.n.n.n.D G 9 9 D 7 % 6 9 X 0 :   w 4 $ w 5   3 w 5 9 D 3 n.n.n.n.n.n.n.n.n.n.n.n.n.n.n.n.n.n.n.",
"n.n.n.n.n.n.n.n.n.n.n.n.n.n.n.n.n.n.n.3 F F 6 q D & $ w 9   w 4   t 5 X 9 9 X $ w 9 & D w n.n.n.n.n.n.n.n.n.n.n.n.n.n.n.n.n.n.n.",
"n.n.n.n.n.n.n.n.n.n.n.n.n.n.n.n.n.n.n.w D w 9 w D $ & y 4 X w 4 . y 7 X 4 0 3   w q 3 9 D n.n.n.n.n.n.n.n.n.n.n.n.n.n.n.n.n.n.n.",
"n.n.n.n.n.n.n.n.n.n.n.n.n.n.n.n.n.n.n.y w 4 4 D t % 6 y 3 $ w 5   y 9 O = y 9   3 w 5 & w w n.n.n.n.n.n.n.n.n.n.n.n.n.n.n.n.n.n.",
"n.n.n.n.n.n.n.n.n.n.n.n.n.n.n.n.n.n.n.= 5   3 F w X w t % * D 4   y q $ & y w % X w 3 X 4 & k n.n.n.n.n.n.n.n.n.n.n.n.n.n.n.n.n.",
"n.n.n.n.n.n.n.n.n.n.n.n.n.n.n.n.n.n.h     + y F w   D w . 5 D 4 X t w O X w y 3 . w 4 + j  .] n.n.n.n.n.n.n.n.n.n.n.n.n.n.n.n.n.",
"n.n.n.n.n.n.n.n.n.n.n.n.n.n.n.n.n.n.o.' - @ F F 7 . D 9   7 D *   9 y o X 5 D 3   $ s u a o...n.n.n.n.n.n.n.n.n.n.n.n.n.n.n.n.n.",
"n.n.n.n.n.n.n.n.n.n.n.n.n.n.n.n.n.n.[ O.u f q 7 : : y &   9 D     7 y X     y 8 i [ o.l g o., n.n.n.n.n.n.n.n.n.n.n.n.n.n.n.n.n.",
"n.n.n.n.n.n.n.n.n.n.n.n.n.n.n.n.n.n.n.[ i { X.' > ; 9   @ 5 6 +   3 9   . - x { a p O.o.X.> n.n.n.n.n.n.n.n.n.n.n.n.n.n.n.n.n.n.",
"n.n.n.n.n.n.n.n.n.n.n.n.n.n.n.n.n.n.n.n...o.o...u ] o.` u ] o.h h  .o.o.i a o.o.X.| X.p n.n.n.n.n.n.n.n.n.n.n.n.n.n.n.n.n.n.n.n.",
"n.n.n.n.n.n.n.n.n.n.n.n.n.n.n.n.n.n.n.n.n.| o.X.i X.O.l u o.o.z p ' O.o.l l o.o. .n.n.n.n.n.n.n.n.n.n.n.n.n.n.n.n.n.n.n.n.n.n.n.",
"n.n.n.n.n.n.n.n.n.n.n.n.n.n.n.n.n.n.n.n.n.n.n.X.a O.O...' o.o.o.g | X.X...n.n.n.n.n.n.n.n.n.n.n.n.n.n.n.n.n.n.n.n.n.n.n.n.n.n.n.",
"n.n.n.n.n.n.n.n.n.n.n.n.n.n.n.n.n.n.n.n.n.n.n.n.n.n.n.n.n.n.n.n.n.n.n.n.n.n.n.n.n.n.n.n.n.n.n.n.n.n.n.n.n.n.n.n.n.n.n.n.n.n.n.n.",
"n.n.n.n.n.n.n.n.n.n.n.n.n.n.n.n.n.n.n.n.n.n.n.n.n.n.n.n.n.n.n.n.n.n.n.n.n.n.n.n.n.n.n.n.n.n.n.n.n.n.n.n.n.n.n.n.n.n.n.n.n.n.n.n.",
"n.n.n.n.n.n.n.n.n.n.n.n.n.n.n.n.n.n.n.n.n.n.n.n.n.n.n.n.n.n.n.n.n.n.n.n.n.n.n.n.n.n.n.n.n.n.n.n.n.n.n.n.n.n.n.n.n.n.n.n.n.n.n.n.",
"n.n.n.n.n.n.n.n.n.n.n.n.n.n.n.n.n.n.n.n.n.n.n.n.n.n.n.n.n.n.n.n.n.n.n.n.n.n.n.n.n.n.n.n.n.n.n.n.n.n.n.n.n.n.n.n.n.n.n.n.n.n.n.n.",
"n.n.n.n.n.n.n.n.n.n.n.n.n.n.n.n.n.n.n.n.n.n.n.n.n.n.n.n.n.n.n.n.n.n.n.n.n.n.n.n.n.n.n.n.n.n.n.n.n.n.n.n.n.n.n.n.n.n.n.n.n.n.n.n."
};
