/* XPM */
static char *result[] = {
/* columns rows colors chars-per-pixel */
"64 64 180 2 ",
"   c #167D06",
".  c #187E07",
"X  c #17740C",
"o  c #1A760E",
"O  c #177A09",
"+  c #1C7C0B",
"@  c #196517",
"#  c #1B6D15",
"$  c #1D631C",
"%  c #1E6B19",
"&  c #1D7312",
"*  c #1E7B11",
"=  c #24760E",
"-  c #2A740E",
";  c #237D0D",
":  c #2B7C0E",
">  c #236E15",
",  c #20601F",
"<  c #2B6719",
"1  c #246C1C",
"2  c #2C6D1B",
"3  c #237415",
"4  c #2A7615",
"5  c #247C13",
"6  c #2A7D14",
"7  c #25741A",
"8  c #2B741B",
"9  c #257C1B",
"0  c #2B7C1B",
"q  c #337B15",
"w  c #30751C",
"e  c #327D1B",
"r  c #3D7C18",
"t  c #1D5B21",
"y  c #256522",
"u  c #246C22",
"i  c #2A6D23",
"p  c #266629",
"a  c #2B6C2B",
"s  c #316722",
"d  c #306F24",
"f  c #306B29",
"g  c #277120",
"h  c #2B7522",
"j  c #277821",
"k  c #2C7B23",
"l  c #2C742A",
"z  c #2E7D2B",
"x  c #347623",
"c  c #337C24",
"v  c #387A21",
"b  c #32742B",
"n  c #3A732A",
"m  c #347A29",
"M  c #3C7C2C",
"N  c #2A6431",
"B  c #346E35",
"V  c #337335",
"C  c #357D31",
"Z  c #407C20",
"A  c #178007",
"S  c #198107",
"D  c #1D830A",
"F  c #1F890D",
"G  c #1E8112",
"H  c #1F8810",
"J  c #218707",
"K  c #23840D",
"L  c #2A830E",
"P  c #248A0D",
"I  c #2A8C0E",
"U  c #30820F",
"Y  c #318C0F",
"T  c #25910E",
"R  c #2B930E",
"E  c #31930F",
"W  c #349C0E",
"Q  c #258312",
"!  c #2B8413",
"~  c #258B12",
"^  c #2C8B13",
"/  c #26831A",
"(  c #2C841B",
")  c #2C8B1A",
"_  c #328514",
"`  c #3B8715",
"'  c #338C14",
"]  c #3B8D15",
"[  c #33841B",
"{  c #39861C",
"}  c #348B1B",
"|  c #3B8C1B",
" . c #269213",
".. c #2C9313",
"X. c #2D9915",
"o. c #2E931B",
"O. c #2D9B1A",
"+. c #339314",
"@. c #3A9415",
"#. c #349B14",
"$. c #3B9B16",
"%. c #34931B",
"&. c #3B941B",
"*. c #349B1A",
"=. c #3C9B1B",
"-. c #37A00F",
";. c #3CA40E",
":. c #2FA11C",
">. c #36A213",
",. c #3BA415",
"<. c #3FAA16",
"1. c #34A31B",
"2. c #3CA31B",
"3. c #3DAA1A",
"4. c #2D8423",
"5. c #2D8B21",
"6. c #2E8428",
"7. c #338423",
"8. c #3B8523",
"9. c #338C23",
"0. c #3B8B23",
"q. c #33832B",
"w. c #3B8229",
"e. c #338C2C",
"r. c #3B8B2C",
"t. c #2E9421",
"y. c #2F9B22",
"u. c #349323",
"i. c #3B9422",
"p. c #349B22",
"a. c #3C9C23",
"s. c #339229",
"d. c #3C942C",
"f. c #34992A",
"g. c #3D9B2B",
"h. c #338630",
"j. c #35A323",
"k. c #3CA423",
"l. c #35A922",
"z. c #3BAA23",
"x. c #37A329",
"c. c #3CA22A",
"v. c #3CB026",
"b. c #428F14",
"n. c #418D1F",
"m. c #419316",
"M. c #429A17",
"N. c #42941B",
"B. c #439B1B",
"V. c #4A9D1B",
"C. c #41A317",
"Z. c #43A916",
"A. c #43A31B",
"S. c #4BA31C",
"D. c #43AA1B",
"F. c #4BAC1C",
"G. c #53AC1E",
"H. c #42B117",
"J. c #4CB011",
"K. c #4DB01E",
"L. c #428D23",
"P. c #42832E",
"I. c #418B29",
"U. c #439523",
"Y. c #439B23",
"T. c #4A9D23",
"R. c #42942C",
"E. c #49932B",
"W. c #449D2C",
"Q. c #4C992A",
"!. c #44A324",
"~. c #4CA422",
"^. c #43AC21",
"/. c #4CAF23",
"(. c #44A52A",
"). c #48A528",
"_. c #45AA2A",
"`. c #46B425",
"'. c #4CB426",
"]. c #52B325",
/* pixels */
"! ) ,.#.F D D Q ^ ..^  ...] : S  .#.~ P K @.+.) l ( 4.^ & { e 5 X , & #.=.( } E +.+.E X.~ ~ J L _ I @.| 5 J ] { K #.%.o...P A D ",
"%.*.$.F J  .} 5 @.S.$.^ P D H ~ +.....M.^ &.0 ( ) +.K ! 6 ' ( J . > > Q N.} ! I +.Q P *.o.1.^ ' ` K C.+.; P ' _ Q ~ ( o.X.+ S ,.",
") X.~ P  .F.Q.B.) c m a * / %.( +.I =.2.^ +.7 %.^ ..Q _ ' P ! F D 5 > _ { 8.i x %.J  .j. .D J ^ ! K W ^ ! D P K 4 3 / O.D J F R ",
"* ) Q Q / m U.| m 8.b N / w.Y.u.+.Q F O.o.&.9 ~ F ^ ~ ( ; 3 ^ ) ~ D * 5 ( { { ' I A X.X.D J W +...6 ! 6 I R 1.; 3 3 ~ ~ D @.Q + ",
"Q ~ K Q Q / 0.b a / 4.a u.i.9.) Q 5 5 K #.=.~ D D J ~ t.4.0 k s.( = X & ! #.^ K ; Q N.m.Y L K ! +.] | 2 K X.%.5 = ^ K K D E K ; ",
"K Q L ' @.&.[ ( i.Y.9.4.) 7.( + 5 5 5 5 Q *.#.O.F   O * d.0.W.9.9 0 m h D 5 K K K ; ^ ' ] { I L } +.[ 4 + o.^ + ' @.! I I R ~ J ",
"Q ] I L +.N.@.^ ~ =.%.%.' } ' 4 = 5 y u P Q ~ o.Q * 3 } 9.(.(.0 *.k.d.a.I : 4 0 $.+.I @.@.0 } D K ^ ! 5 * 1.#.D L ] ' ..P +.P K ",
"I _ K K ! K ^ Q 5 4 ` Q 5 _ q > o.^ a 8 [ 7.* X & i x V.( W.f.) x.u.! @.Y U w 4 $.Z.~ ^ +.L.A.^ + L ' I D ^ 5 ' &.= K X.^ ..P ~ ",
"K 5 ;.+.I ; 5 Q Q [ V.6 9 ' &.w ( ! 8 7 0 Y. .P +.[ +.&./ z f.e.z $ 7 e + q 8 ; K #.=.! 4.w.} J & + P W } [ ' A.=.A . R $.%.X.X.",
"- I W ! ^ K +  .#.+.Q 9 4 / +.[ ! 0 %.*.9 $.+...,.3.9.o O k.(.6.& 7 Z 7.l k 6 : I B.a.( m a $.2.%.~ P ^ 0.0.F.A.%.D ; + W W *.~ ",
"Q #.D Q  .) ^ / } ^ Q 0 [ ) Q 5 ' ` m.B.} *.=.#.H.5.1 7 [ T.(.* L ' r b.) ( + K K } Y.=.7.h 2.B.} +.P 5 $.C.9.*.+ & ! ' } @.+.| ",
"+.+.K + X.} X.) 7.*.%.=.{ 7 9 5 : @.$.$.' 0.0.k.2.5 > 3 %.! D A I ` 8 { [ 4.5 K L 6 *.9.h 9.{ } 0 &.( 7 6 %.4.7.9.%.= @.V.#.~ = ",
"K +.Q S M.} ) 9.0.A.U.&.( 7 ^ @.' +.@.P +.%.) O.P ~ | _ ^ + F l.l.=.P _ > 4.( u 7 ( F.0.0.i.[ ! ' ' q ! g 0.=.E.S.$.L = + ~ Q ; ",
"^ ' ~ F ! 6 J | r.1.=.@.%.' L ! ' +.I J +.>.o.P P T Q { +.D Q *.3.O.I I 3 Q o.u g ^ 2.~.=.&.} ! ^ Q M.~.&.b L.T.6 * @.: ^ @.~ +.",
"^ P  .+ 6 _ Q [ c p...5 m.@.I K _ 0 D K ~ ) T  .,.<.1.*.+.^ a.+.^ P o. .F * / 5 0 ~ *.o.} N.[ 7 Q Q [ V.} n 0.&.I 3 Y K ' @.' #.",
"X.X.X.L K B.+.@.%.o.K q b.@.5 = : 3 +.K 5 0 ^ ^ X.#.3.u.%.O.`.=.T.d.q.q.4.+ ; ' e 0 2.%.%.=.0 7 0.#.5 ' [ U.U.{ n._ K I @.6 ; F ",
" .3.2.6 Q _ : K } @.' L.: K & Q ^ 3 +.E 0 8.@.*...+.F.*.X.5.W.W.h.u.5.5.9.- 6 6 ( } 4.4 Q ! 8 g $. .D = > !.3._ q L R @.M.L I S ",
"h p.=.J + = = U : ] @.6 K ~ ! ^ M...,.#.[ N.+.+.~ ^ =.*.#.7.r.R.C m *.V.{ q K 3 4 4 8 8 Q Q / 0 o.K P [ Q 1.^ ` e 5 R 6 = D I %.",
"b u.5.* 7 } +.L K m.M.Y J ^ ^ C.,.T R W ~ $.#.=.V.+.^ X.2.*.g.R.t.Q _ N.b.U : 7 y x n.4 ` K ~ Q R @.@.[ K ) ; ' L ^ R Q _ E R #.",
"P a.} [ k =.#.K K L I P J P #.G.#.I ,.>.P P P P 7 +.7.7 7.U.E.h.Q & , # + ~ / Q + + m.e @.+.^ Y M.| n.L.M.~ o ^ ' ! } L I ^ ; + ",
"~ ' *.+.0 ^ =.} ! V.V.} &.^ M.A.#.( %.*.P P X.) j * 9 0 } Y.Q.d.^ _ 2 7 P . ) ) 5 ; ] ] I @.' m.V.%.^ n.M.M.~ ' ~ ~ ' Q I K : K ",
"~ ..~ P ( [ | 7.c U.Y.i.i.=.C.#.W / [ =.,.>.,.,.P K I +.} D.d.*.5 { 3 5 } D | / + ' _ : P ^ @.m.I $.L L U Y R R  .P ^ ! R K L ..",
"I @.K P I +.*.%.%.c 8.i.7.0  .+.2.' =.B.=.D.,.+.~ Q ' ~ 7 m d.3 y 0 5 } %.+. ./ / ) + D D p.*.U L #.+.: : : J R ..Q ^ R R L Y I ",
"R + D D I +.~ #.A.9.[ } ! ( K 5 =.=.&.0.w.&.$.@.+.' +.P P k.Y.e { !   ~ 2.*.~ 5.y./ %.D *.9.*.~ L ^ +.K K I  .J -.( $...K I @.I ",
"W F + P 1.*.( / Z.%.*.+.+.^ P P #.,.} 9.=.k ( ' ~ * Q Q I $.+.Q ; . A A 1.u.Q y.t./ ^. .p.( [ 4.6 ( ) !  .,.L J X.+.,.^ > > ~ K ",
"#.J A ~ %.} %.k A.9.0 ^ ~ K K P P #.} x 5.% J * * o.g X . Q 5 D D P / G k w.a s.5.% D.o.1.7 1 +.) ) ..( 7.+.4 6 P #.%.; = 3 ' ..",
"X. . .D ( ( { w.P.6.$ D L +.~ I Q ^ } l g # & % ) o.@ # D 6 | K ~ :.k 6.q.b z u.k 5 =.) ) 0 7.+.X.) k h 0 ! 6 Q P ..) 1 4 3 ~ #.",
"W X.~ F ~ J / L.b a t + L } @.I 9 ! c k # o l q.7.j 9 # 6 { N.' A S 7 * ( 5.h 9.k ^ u.5./ ( *.! ) ^ ( ) ) 9 Q K K ! h 1 Q 6 Q R ",
"..R Q S P F * } r.m % + 6 ] } L } ) f.} D D f.w.d.c.u.+ ! { [ _ . D ( K S Q l l 0 ^ *.X. .^ *.Q & O.*.1...[ e = & / ( 1 Q L ~ P ",
"1.>.D + K D . ; g.~.* * q 0 6 3 @...o.^ ^ H z.R.%.7 Q ! 9.0 4 ( . + ! ~ P P p.f.0 6 x.O./ 5.o.& % / u.C.I I } o X ~ y.& K 6 5 J ",
"1.X.  * ( +.I + a._.K J [ e 4 X ^ D D _ [ ) a._ K X D 5.e.+ X +   . { ' K X l c.x ( v.o.6.6.^ + & 9 6.#.I 6 5 + D Q a.6 ! 3 >   ",
":.F   X 5 ] K I ! k.( ; K o * 3 I S + 4 d 9.) ' ~ + Q 7.s.& p z o.P @.[ Q X h c._ ~ j.4.x.Q ' ~ 5 G t.K ' 6 X + ^ Q %.! 5 + # + ",
"F D   X 3 [ 8 6 Q F 7 D   A 4.@ + . = 3 6.7 K D y.s.Q Q f.9.B C O.o.@._ 3 o X L I L q.z X.D Y _ ; ..Q 5 L K   X @.' * 5 > + > + ",
"   . .D o 5 2 8 L G 5.& % p.6.# 5 I 5 5 G ; 5 1 5.(.g.&.g.e.b 3 O K #.E ( 5 S ' } Q 9.6.D + K 8 ~ K 5 5 ..S O # 5 K * 5 & X # + ",
" .l.z.%.3   5 [ Q ! %.8.4.a.k j u.^ ( S   + d.9 5 !._.W.c.l # P 5 8 +.@.@.|   L ( + q.9 D 3 = 5 ....Q 7 ( 7.=.@ > X.p.X & A o . ",
"l.v.z.0 _ 3 ! _ 5 D Q c k ) ( a 7. .T P S D !.$ ^ +.c.W.h.t @ R _ 1 K @.E +.J   X O l @ . = : J W W F 9 &.f / % & x. .D O + 1.* ",
"t.j.*.^ &./ ' } Q K P 7.k %.0 y 7 Q X.#.X.F &.0 $.+.i.r.p.#   K ! & D I ) ~ ; O + D 1 t : 2 4 L R $.Q @.@.4.Q 1 4.f.l.j. .3 o.) ",
"( y.z.2.%.+.&.@.^ I P *.q./ D 3 & F F X.#./ / ^ ..^ u.9. .S   F *   J ~ Y.W.( # / ..3 4 ` { 8 ' +.%.k J.*.Q Q k j.1. .D * o S j.",
"~.k.*.P I +.M.! L K K #.%.X = - A F F J ) k ) ! J + *.1.D D . o.5.O + O e F.z l w.e _ M.' _ 0 Q I ) 9.Z.2...J o.~ P . . & : ] '.",
"'.3.D ~ 2.#.@.' @.I K X.J . = ; X.R >.;.5.} o.Q D = ~ o.X 5 8 r.u.# ( 0 8 i.4.f.e.* + [ | w 6 I ! ^ 7.$.R ' +.^ +.P 2...I L @.'.",
"z.D K K X.>.P P P P D P E L L +.C...J Q % Q 1.P + ; 3 P + 6 ( u.V b h.z i w.b 6.( 9 ~ ^ ( 8 8 } *.| w.=.~ ( S.S.$.+.F.+.^ ; V.^.",
"] ' I P R >.T  .1.#.L @.M.] @.R #.I R @.( ' L ; P 6 & +.^.i.0 l z c.j.D ' F.Y.8.k 4.o.) 0 x w ( V.0.x V.&.} T I #.+.&./ 5 D . ^ ",
"@.+.R ^ X.B.&.*.3.X._ M.M.$.E #.Z.=.+.2.! L ' Y K L 6 ^ +.*.c.5.j.h.% & h ~.Y.i.h ( #./ 8 h 8 4 ^ %.c B.' ! X.#.o.o.i.* / $.Y @.",
"I A.M.R  .*.X.,.#.I P @.: } M.X.<.#.^ Z...I K K + = 6 K + D & l t.u.o & / =.u.c h ( } $.V.| q ! ' ( 7.U.+ 5 W >.) ) 9.Q $.$.} @.",
"I #.E #.#.*.>.C.S.I + ) *.) +.*.a.k 8.B.Q D P X.~ + * E +.K # & P ^   I $.*.m 7.h h _ $.B.' _ ' @.^ N.!.; ; L E *.) 9.*.+.D ~ ' ",
"#.R @.0.x k %. .P 5 o ; #.B.9.w.r.M 9.3 5   ^ 2.1.( 9 #.:.+.D ! ^ I   +.=.i.n r _ 8 w m.] Y L n.+.! } T.^ ! ^ ^ #.) 0.9.Q P +.V.",
"-.P ' X.^ z.P D ; q m.K ! i.$.&.} q.h 5 + ( 0 0 %.9.} Z.1.@.e.r.e.*.+ ' ! 5 8.! $.> v B.+.' ` S.] ! %.*.5 8 ! ^ X.A.!.^ 5 ( I I ",
"..Q & D F 1.D @.' 4 ! ' &.@.x 8.8.B 7 K : } { 8 0 k 9.u.p.z.z.a.~ P K ' Q 3 0 6 B._ $.B.I ; Y V.' + X.=.5 3 Q @.#.%.a.^ 0 | +.J ",
"..~ ^ F . F I L U L ' _ B.' i =.r.M P P ! +.&.0 c 7.9.q.d.4.! + J ^ ~ { w > 1 5 0 I ~ L @.; L &._ K ^ ..Q 6 ! ` &.%.1.P } Q I ~ ",
") %.%.K K I U U ' #.A.I G.V.Q N.u./ K ` @.} ! ( i.i.9.e.w._ { 1 ( X.K.| _ > : 6 8 [ @.I ;.K K I K I ..' _ _ 4 e Q / *...} L Q 9 ",
"#.^ K I L @.@.+.A.F.,.^ S.&.Q @./ 5 3 [ ' ' Q G k E.!.&.0 +.} 5 _ A.T.8.> 5 K Q r c $.} C.K J ) 2.>.P K ( : Q 5 ! ^ } @.@.Q ^ ) ",
"O.P D ! Y I E +.M.A.( ~ ..+.@.*.^ P ` m.` ! ' D 5 i.X.5 ^ =.} +.[ R.w.1 7 Q ^ ) _ x { 8.w.9 l [ >.T D ; 4 ' +.5 ( ~ D K ' K +.*.",
"P D ' ' M.E +.E $.9.k %.@.X.K +.+.K +.b.m.' @.^ D %.A D ( g.g.%.k W.5.5 *.&.&.$.I } { $.&.9.0 Q I I D D Q Q K ^ +.#.R +.B.K K P ",
"I I L K K R W R X.^ 9.*.) K Q J =.&.M.: _ @.^ +.~ ~ D ! 6 ../.(.z R.k !.=.M.| 0 D +.5 &.i.{ 5 Q Y ' P ^ / 7 ~ >.#.X.P ; ` _ J ~ ",
"@.E +.P ; I $.Z.#.$.,.R K D K ~ $.N.' K L ! ! Q F F Q ( L.' G.r.V R.a.%.+.0 8.x Q ' ' 7.%.^ @.( L ' #.} 7 k o.p.~ J ; D - 6 D ~ ",
"6   >.+.K I I >.!.F.=.I @.@.^ N.} 4 8 = K ..X...P ~ >.K m.} @.r.V !.=./ ^ ! e w _ : ; 6 ' I ] [ _ K Q ^ ) X.5.9 + 5 K S D J I ; ",
"^ P W o.P P ~ Q 1.C.! Q 9 Q 5 ) 9.7 ( ^ F  .3.3.X.3.<.! | 2 1 e.d.f...! ^ ! 6 4 < s 3 4 } ^ L _ ' ( 7 ~ 7 k k 7 Q Q ..5 P R J ! ",
"I T R ) ~ o.u./ +.) 7 5 k #.~ q.7.S.%.K K ; + O.l.K.+.| _ 3 @ e.d.I.! q ' _ _ ] 4 < = L } ' L L L } ( ^ ) 6.g Q ~ 9 R P I P J L ",
"F P T ~ ^ *./ & K 5 [ ~ ~ <.%.a.Y.U.{ ' @.@.+ ) _.Q.q.T.V.* t C W.c 6 Q _ ' | b.q 4 _ @.S.M.@.Y L ] ! J u.r._ ! Q Q ^ T I D ; P ",
"S P X.^ %.* + 7 ^ } @.' 6 o.3.D.| ! ( ' m.N.D 1.k.).!.].C.* 1 q.(._ ; + 5 5 ' ' ! Y } m.] Y ] L K Y ~ D ) i.n.{  .^ #.-.S + 3 F ",
". T #./ Q X * 3 I I I K ~ %.2.S.Q ~ ^ K ! K ~ o.( 7 & ~ K ; Q c _ P K ^ = ^ 8 8.@.^ K + + = = ; + E ' + * ) 0 8 ~ S >.X.D o G 5 ",
"S F  .P ; D K ....#.A.R J $.$.$.@.+.@.K ' P ) 5 0 ! 9 # + Q ! 4 0 [ _ { 5 } ' ! I I K D o L I I R J *.+ + D @.` + S :.F ~ A O O ",
"F D F F Q ~ M.A.@.#.Z.X.^ ' I +.Q ..#.^ ' ..@.5 %.6 ! K + _ @.K I ! 6 ! K #.^ +...P P P ; #.P . W W ! ! ;.F 5 q - D  .S X.D   P ",
">.D   F J P +.@.+.T R $.B.` K X.X.*.=.K 5 ^ =.Q ( / Y.~ o 0 ' ' ! 3 3 ..( 0 ^ >.E $.$.^ R ..K J K @.q } ,.D ` q + W J  .W D + J "
};
