/* XPM */
static char *result[] = {
/* columns rows colors chars-per-pixel */
"64 64 108 2 ",
"   c #167407",
".  c #167D06",
"X  c #197C07",
"o  c #1C760D",
"O  c #177B08",
"+  c #1B7A0A",
"@  c #1E7311",
"#  c #1F7B11",
"$  c #346F0E",
"%  c #24750B",
"&  c #2B720C",
"*  c #21790A",
"=  c #2A790C",
"-  c #31710D",
";  c #226E15",
":  c #296F11",
">  c #236C18",
",  c #227112",
"<  c #297010",
"1  c #237B14",
"2  c #267E19",
"3  c #287E1B",
"4  c #1C8206",
"5  c #1B830A",
"6  c #1E890E",
"7  c #1F8210",
"8  c #218606",
"9  c #238A05",
"0  c #288F06",
"q  c #21840C",
"w  c #28860C",
"e  c #228C0E",
"r  c #2B8B0E",
"t  c #338D07",
"y  c #35860E",
"u  c #2F9504",
"i  c #26910E",
"p  c #2B940B",
"a  c #2E990D",
"s  c #329407",
"d  c #339C0B",
"f  c #238512",
"g  c #2A8613",
"h  c #228D11",
"j  c #2B8B14",
"k  c #278418",
"l  c #2B851B",
"z  c #278819",
"x  c #2C8D1C",
"c  c #338B16",
"v  c #259314",
"b  c #299615",
"n  c #2B9A15",
"m  c #2C931C",
"M  c #2C9C1A",
"N  c #339414",
"B  c #329D15",
"V  c #3B9E17",
"C  c #32941C",
"Z  c #38971B",
"A  c #339C1C",
"S  c #399D1E",
"D  c #36A10F",
"F  c #3AA20C",
"G  c #3DA80F",
"H  c #2FA01D",
"J  c #35A316",
"K  c #3AA513",
"L  c #3DAA15",
"P  c #32A31D",
"I  c #3AA41C",
"U  c #36A91D",
"Y  c #3BAC1B",
"T  c #3EB11E",
"R  c #2F8E20",
"E  c #2F9320",
"W  c #309521",
"Q  c #339B21",
"!  c #34A522",
"~  c #39A422",
"^  c #36AA23",
"/  c #39AD24",
"(  c #3CB125",
")  c #3CB329",
"_  c #42AC0F",
"`  c #47B10E",
"'  c #4AB40D",
"]  c #51B70D",
"[  c #40A215",
"{  c #42AD13",
"}  c #49AF17",
"|  c #43AC1A",
" . c #45B215",
".. c #4AB414",
"X. c #4DBA15",
"o. c #44B41C",
"O. c #49B519",
"+. c #47B81D",
"@. c #4BBB1B",
"#. c #51BD14",
"$. c #50BE18",
"%. c #41B522",
"&. c #44B923",
"*. c #48BB21",
"=. c #40B628",
"-. c #55C114",
";. c #59C413",
":. c #51C118",
/* pixels */
"H h . @ ; . . 5 . . ! E v . . . . 6 6 .   O . . . . .   > + @ + 6 5 . o @ > >   . 5 . . . 5 M . . . o @ M 6 . . H ! 6 6 ^ H ) ^ ",
". . . . @ @ . . . . ! ! 4 . . . 6 O 5 . . . . . . . . O @ O @ + . h v 5 @ @ > @ O 9 M h X M ! O . . @ @ 6 . 4 6 M ) ^ v ) ^ M 5 ",
". . . . . @ . . . . ^ h . O + O J 6 . . 5 L O.. . v ! . o . @ O v ^ ^ E @ . o > o b } o.f ^ m C ^ 6 ; O . . P i 4 M ^ H ) H . . ",
". . . . . . . . . . ! . O % % O ` L . 4 X.-.6 4 . ) v 5 O O ^ # ^ / H 2 > @ O > @ . 5 X.m ~ | O.P i b 6 . 4 o.4 . 4 ^ ^ ) 6 . . ",
". . . 5 v h . . . 4 e X & - : % a @.6 ..;.H . . H ^ ^ ^ v @ m m E H m 5 k 3 > > : . . @.I +.J 4 . 4 J +.H . O.4 o O ^ ) ^ . . . ",
"6 . 4 6 T o.v 5 n D % & & : & & % O.N #.( 5 . ! ) ! h 5 @ + 5 ! l Q ! H v # ; > - * 5 L ~ v . * O . 4 U +.b O.e X O H ) M 5 5 5 ",
"M . . . i ..z M +.B * % ; , % % + U A @.n . O m 6 . . 4 @ % % ^ R Q M 5 4 . + > : % + L Q . X - . 5 4 4 T T o.u X X H ^ 5 . . v ",
"H . 5 5 4 o.m / Y 4 . + O 1 } / z m S  .4 . @ @ . . H 6 4 O = / ^ H O 5 H v 5 o % . O J 6 + & % v L +...T ( o.4 O = v H 5 . . M ",
"H M / M O O.W W b 5 i . . + b ..O.x Q O.O + @ @ . . -.e + + = ~ ^ . X % M T . . . 4 . . X * & 9 M 6 5 . . b =.e . * 4 6 . . . n ",
"! ) ! . . X.Q x P +.o.A * % % 8 ` S Z X.. . @ + e 5 -.e O O X g = , % % v X.5 6 U M + + & % % . v . . O . % = % . & * e ! M O b ",
"^ / e . 5 $.~ ~ =.T n h X % - % 8 I W X.. 5 A n e P @.5 5 M O + % & 4 4 v X.v ( O.b % % % % . e +.5 . 9 g % % & + & & 4 6 H ) M ",
"H H . . h @.^ ^ b . O + & & % & % f } $.. . e  .H m ( 6 @.| o @ % n @.P 6 X.T o.v . . * % O . P +.5 b :.n . . 4 . % % . . O 5 M ",
"5 . . . b ) ) 6 O O % % & : < X = * :.o.O + * t o.f )  .o.. % % * . u L U X.o.i . . . P { h + M Y f O.o.. . 6 n h O + 9 v . . 4 ",
"5 . . . n ! 5 % % - : % < & - & + 5 *.%.O : % % { A o.+.. . @ % B e 5 i H *.P . . O . . L :.B m ! P O.. O O 6 L / e . T P . . . ",
"^ b O   X 4 . + % X O O % X : % % 5 &.Y . % , & n | *.n . + o .  .h 5 5 v ) 6 . + & % O X Y X.| A ! v . + @ . 9 Y m 7 :.H 6 H ^ ",
"6 O + % % + . 8 J 4 O 5 5 o & & % + ! M O % % & h U =.e o * f .  .9 . . 6 U . . & - - & , 1 ! X.} ^ 5 . % : + 4 U x x Y H / ^ H ",
"O . 6 + % < & X ' #.4 9 +.+ & & % o v v . ; % & 7 M ) . @ , h v  .6 5 4 4 4 . % - % X & - o 2 / *.T . * % @ o O K m R E ( n 5 . ",
"5 6 @.i O , - & * ' L 4 -.4 . . O . . . o : ; ; O v ! . % ; 6 P o.H M 5 . * - - o h K 4 < % o x ) M . & % o @ O P E m ^ 6 O . . ",
". J :.h . o + o * 4 X.5 -.5 5 M O.o.v O ; : O . . b v O : , . P T v . O % - % . 5 o.O.. o % + z ~ e * * + ; o . b / Q e . . . . ",
"4 / / 4 . . h e . .  .A o.v ! +. .e . + ; % . . . 6 5 O < , . ^ U . O % : < . . v @.B 5 h f o h R e * % : > o O 5 o.v . 5 M 6 . ",
"v ) M 4 v Y +.! . . w L x ^ H u X X . O o 5 . a X.:.n + : % . ^ v . O % % + * . H | A @.+.P + . l 5 X & - & + O 5 ^ . . 6 ^ ) v ",
"^ ( v U X.:.L v O + ,  .Q ! . + % * 5 . . k h X...P h @ & % . H 4 . o + * r L d H E Y U h . o . b + & & & : ; . 5 6 . . . 5 ! ^ ",
"( ^ ( @.K = X 5 + & + J Y M % % & g Y L 5 x A ( h O + + % < X q % X m 9 * * e X.U S @.4 . . o p L % % & % , ; . . . h + @ . 4 ^ ",
") %.| e % & O , % & X v M b % & - . 4 D ^ o.) b X , * O O . . + , O L L % & . v U @.L . . + o L Y o O . 5 m N J . h Y . @ @ . ^ ",
") ) 5 + & & ; : < & + e v 5 = & = O . . M :.! X @ +  .# e D . & , .  .( 5 O 6 . U ..v . 5 X + I n f A e . h U o.M U  .4 O @ . ^ ",
") b O & & ; > & & & % f + % & - % o . . v %.6 o # 5 ..k L 0 O & + . L Y e o.( b n N . . I / z Q Q #.V 5 . % . H / X.i 4   o . ^ ",
") . . + ; > : = , ; ; ; ; & * ; : : X . M ) O @ v n | O.a . + j . X ! Z +.O.n . % % % . q ..A ~ O.{ @ O & % . M &.o.H v + O . ^ ",
"^ O O o @ @ o , , @ o o + & % & @ y N . b ! o % 5 z O.#.O @ 1 5 . 5 / O.L 5 . + X . & % + N ( o.L + , % & O 4 ! ( / U T M O + H ",
"* O O O X L X O . . . . @ @ % X O p Y . 6 M + : X O T M + @ 5 1 O v +.P 5 O @ k f o + + . n ( Y . + @ O % . e ! h 5 . 6 5 O O 6 ",
"@ o O @ X ..f X 5 5 6 5 @ r r s a 9 L o 4 5 + , o 5 ! . 5 . O + . 5 M + + O + P o.| v 5 . h v 5 5 b O + o O h 7 @   O . O @ + o ",
"O + @ + + { k A L 5 6 f # o.i . F [ j r ` 5 . - % 5 h . o.4 O v 6 . 5 O o @ o o 1 Y o.h + o 5 5 + m M + @ O + @ z @ o . . @   O ",
". + @ h z l m -.p . 5 b N K . O 4 ` c [ O.5 + & * d e v  ..   4 K . . 6 6 + @ , X 9 ..n o < o b M x Q X @ x v # z k M 7 . ; O 5 ",
". o X n ` 3 #.F . o 5 M x e . % & 5 } ..h . % < O K L P  .h . O i n ` P 5 4 . + # O X.K X @ * . 6 A 6 O % , M H x m 6 5 o ;   O ",
". o + 5 { { ` O ; @ 6 Q m P 6 % & O ` { . . , : @ 5 M ^ P . 4 J 6 O. .4 4 6 6 O @ + ..L . O 6 6 . 5 6 5 . % * ! H . . o @ o o O ",
". o o O B -.p + @ O b ^ b O 4 . . . d M . . O + ; @ M ^ 4 . . p M Y 6 . v  .H M + + +.U 5 v L J 4 . v ^ e % % m v . o @ + O . . ",
"v O + O p { . . O . n v . 8 F ..[ , , + . h n + @ @ M 6 . h % o + H 6 . ^ &.+.T h 5 +.^ v ( X.) v % . P ( i + # O 5 v 6 O . . v ",
"v . . . 4 4 . o @ , , , X = & c ;.N > ; O M m % % , x X 4 _ * % = l # o o n ! %.^ v ( Y ~ +./ n 5 + % X ! @.M X . . 6 ^ M 4 M ^ ",
". 5 v 6 . , @ @ ; ; , , < & * o x b o ; o Q k + % % , + 4 ' m + * 1 , : , + 5 H ( E ( A f f + o : : < o O U :.^ 5 . . 5 ) 6 ^ M ",
"M ^ ( M . & ; 1 o.v + . X X 6 . 1 3 @ o + H 5 O % % + m 5 ' v O o % + % & % % . v E W m O o % & & X + @ . 5 e H 6 O o O b ^ ) . ",
"/ ! 6 5 + & - ; B +.b . 4 ..H 4 . + @ X . 5 5 5 5 % = P B U 6 v + < + o % : , * % & < < o = & * ( ! v O 4 n . . O @ O + 5 ^ ! M ",
"! . . . X * & % 4 @.~ # P / 4 . . . 6 _ p . 5  .! . + i _ I H H * % ' a O + % * O , , , & = * . 5 P o.j 5 / 6 + # 7 . + 5 ^ ^ ) ",
". . & . b b X & 4 L Y z ^ e e L Y n . J #.i M @.6 . + O F ..! X < g J + + . . 5 J o . X h Y o.U . . L  .q %.M 6 T T M # . M ^ H ",
". O & * b ^ X % % p ~ W P p -.:.O.H 5 .  .} ! P . . % + q @.B @ , n + @ b D n h X.h . M @.+.B X . * % ` V o.x L @.P 5 + . b M 7 ",
". O % % q ( q X % p O.W n X...i . % o o q o.Q j P A & % + Y X % f 7 @ # U @.+.Q +.v U :.o.h . X % % 5 9 ] Q m ( M . @ @ . 6 5 4 ",
"P b . % + ! P . % 8 O.W P / e + % & & % + O.C / #.L % & # v + + 5 @ @ 4 . 6 { Y ~ U &.U 5 O % : : o + O ' V Q ! . O @ . . . 6 ^ ",
"! M . O . h ( 5 o o +.E ( b + + o + & & o O.Z | 8 + o & @ + @ 5 + o 6 5 ; + 4 n Q ) H O . * X ; : o * * J o.Q 5 5 5 4 4 . . 6 H ",
". 5 h v 5 . h q , k %.Q M & % @ 4 N * & @ &.Q 5 . % @ @ , @ 5 v 5 5 n O : & & . Q / h O % & % > : * X X v / v h +.&.^ v 5 6 ^ 4 ",
"v ^ ( / M . % & , j ( ! + & , h ( U O : @ &./ . & & O + + , O 5 M h M + @ & & . Q M 6 + - X @ ; % X J 8 @ @ + 5 H U ( ) 6 v ^ 6 ",
"^ / ^ ! ~ = = : ; b M 6 ; : z ^ H v 4 : @ ) ! % - = J 6 . + + . h M b @ @ : - X v k ; & & 4 X O + X  .K o @ > @ O O M ( L n ( M ",
"/ M . + = & % o + + o ; & % H v v 5 . % # ) h & & p { & - . 5 n 6 ! v . + % % & & < < & . L L 4 X . U T O X @ > @ . 5 Y @.j ) ) ",
"n O o + * < + . o , % % % 4 v v O . . + 5 ) O % + J o.+ & + v n ! ! b O O 5 O , < - % * . e o.G . . L O.. . O + + . . n &.Z ^ ) ",
"5 + ; o . 6 H M O o : & + 6 h * 5 9 & % X M 5 O O n O.. X o % + 6 ! P . J ( P # + . . . . . h ;.n . J o.. . . 5 5 O . . / [ ! / ",
"O @ >   . . M ^ v . & & 4 h % $ = P . & & e U H . i o.5 P q & o , k H O 5 U +.| 5 . . v H n . L X.4 K o.. 5 P %.P O . . v | / ! ",
"+ > @ . . . . v 4 . & + h q % $ . o.r - $ & 4 T b 9 O.x K w % . @ + m 6 . 5 m $.n . v %.+.^ . 9 :.6 U U 7 ! :.X.h + O . O | %.n ",
"@ > + M Q 4 . 5 H 6 . . 5 H v - & T _ % - - . d ^ f O.C L = & q n + + 5 . . q I o.j / o.M . . O ..x { A m @.#.g , > > O O ^ =.+ ",
"> @ . v ) v . M ^ v U . H H Y e + U #.% O e i 4 Y j @.S e & * 4  .@ + O . . . S  .m / M . . . . K J K C o.#.g > > @ X . . ^ ^ , ",
"O . . . W ^ # ! ^ 6 *.m ^ b F L 4 H :.5 v T 4 . B Z | z = % e . ` X O 6 U M 6 n %.l Q . . o O . r { Z I -.v @ @ + O 5 4 . 6 7 # ",
". 6 v v . ^ R ^ M 5 O.Q &.* X  .P v X.6 T D * & 5 I I 1 % * J M U 6 . h Y @.%.b ~ R 6 . o > @ . . P I ;.L . . . 5 H v . .   @ . ",
"6 ! ! ^ Q x R ! v 5 L ~ J * & w T v @.H T . & % X o.| 5 % ; N X.o.n h 5 . p #.+.! W 4 . @ > o . . M X.@.6 O . 5 U U 4 . O @ @ . ",
"5 . . 5 M ^ R Q h 5 A / 5 . & % n H +./ v O & & + Y &.. & : @ K ;.P E 5 . . e -./ ! 4 . @ > @ + . L :.! . 5 H ^ L b v . O > @ . ",
". . . . . 6 ! R 6 O Q ^ . v ! . . ^ ( / X + % % . U ) O + & , . o.U @ O . . . J :.T 4 . @ ; ; ; o v ) b 4 . ^ ^ / ) ! . O @ > @ ",
". . O . . . ! ! 7 + ! M b ) n . . M / H O O @ O . h ^ O O ; ; . ( L O + o . . 4 ) +.. . ; > ; @ . v M 5 O 6 ) ^ v . . 6 H @ > @ ",
". O ; o O . M ) 4 . / m Q H O . 4 6 ^ 6 . @ o . . . H X O @ ; . Y n . o o O . . ! ) . . ; ; @ . . . . @ @ v H . . . . M ^ O o + ",
"v 5 o @ O O 6 ^ . . ^ E ! 5 . . O 5 P . o @ . . . . h + o @ @ + M 6 O @ @ + + . 7 H . . o   . . . . O > @ Q 5 . 5 4 . b ) O v M "
};
