/* XPM */
static char *result[] = {
/* columns rows colors chars-per-pixel */
"64 64 146 2 ",
"   c #010102",
".  c #090807",
"X  c #0B010F",
"o  c #0C0C0C",
"O  c #161501",
"+  c #10100F",
"@  c #0C0011",
"#  c #141413",
"$  c #191914",
"%  c #1B1B1B",
"&  c #171C13",
"*  c #1B2515",
"=  c #19361B",
"-  c #21211F",
";  c #222D1D",
":  c #171320",
">  c #1B1B21",
",  c #000038",
"<  c #040636",
"1  c #21002E",
"2  c #25112C",
"3  c #250530",
"4  c #1F2139",
"5  c #242423",
"6  c #282726",
"7  c #202B20",
"8  c #282926",
"9  c #2B2B2B",
"0  c #302F2E",
"q  c #243623",
"w  c #283727",
"e  c #283A23",
"r  c #2A3929",
"t  c #2C352A",
"y  c #31312D",
"u  c #303C2E",
"i  c #2F2E31",
"p  c #222234",
"a  c #343433",
"s  c #383736",
"d  c #353C33",
"f  c #393836",
"g  c #3D3C3B",
"h  c #403F3D",
"j  c #3A4E2F",
"k  c #384735",
"l  c #3C4D33",
"z  c #41413F",
"x  c #414939",
"c  c #52513E",
"v  c #030540",
"b  c #000049",
"n  c #000350",
"m  c #03065F",
"M  c #090C55",
"N  c #151453",
"B  c #3C1E47",
"V  c #2A2B40",
"C  c #232442",
"Z  c #383948",
"A  c #000562",
"S  c #01066F",
"D  c #070A63",
"F  c #0F1162",
"G  c #000372",
"H  c #141576",
"J  c #413A43",
"K  c #513E4D",
"L  c #4A3551",
"P  c #5A3B56",
"I  c #440363",
"U  c #5E087E",
"Y  c #682A63",
"T  c #70366B",
"R  c #67277B",
"E  c #454442",
"W  c #484744",
"Q  c #494946",
"!  c #4D4C4A",
"~  c #4F544C",
"^  c #51514E",
"/  c #504153",
"(  c #5E4859",
")  c #555554",
"_  c #5F5F5F",
"`  c #625E5D",
"'  c #64645F",
"]  c #6E4069",
"[  c #774471",
"{  c #666663",
"}  c #676B62",
"|  c #6A6965",
" . c #6E6D6D",
".. c #72716D",
"X. c #776771",
"o. c #757573",
"O. c #81807B",
"+. c #000782",
"@. c #00068A",
"#. c #040B8B",
"$. c #010992",
"%. c #000499",
"&. c #0005A7",
"*. c #0008AC",
"=. c #0008B0",
"-. c #0005BF",
";. c #0A11B4",
":. c #740693",
">. c #7601A3",
",. c #7B00A8",
"<. c #0005C2",
"1. c #0006CB",
"2. c #9E3D95",
"3. c #8C00AD",
"4. c #8429A9",
"5. c #8E4186",
"6. c #B346A9",
"7. c #CC47BF",
"8. c #8E00C5",
"9. c #9100CB",
"0. c #A01CC9",
"q. c #A10ADE",
"w. c #B61FDD",
"e. c #BD0FEF",
"r. c #B000F5",
"t. c #B400FB",
"y. c #BA00FE",
"u. c #CD00F0",
"i. c #C000FF",
"p. c #CB00FF",
"a. c #C718F3",
"s. c #EC47DD",
"d. c #EE47E0",
"f. c #F748E8",
"g. c #868685",
"h. c #8A8A87",
"j. c gray54",
"k. c #90908E",
"l. c gray60",
"z. c gray67",
"x. c #C4C4C4",
"c. c #D5D5D5",
"v. c #E4E4E4",
"b. c #F6F6F6",
"n. c #FEFEFE",
"m. c None",
/* pixels */
"m.m.m.m.m.m.m.m.m.m.m.m.m.m.m.m.m.m.m.m.m.m.m.m.m.m.m.m.m.m.m.m.m.m.m.m.m.m.m.m.m.m.m.m.m.m.m.m.m.m.m.m.m.m.m.m.m.m.m.m.m.m.m.m.",
"m.m.m.m.m.m.m.m.m.m.m.m.m.m.m.m.m.m.m.m.m.m.m.m.m.m.m.m.m.m.m.m.m.m.m.m.m.m.m.m.m.m.m.m.m.m.m.m.m.m.m.m.m.m.m.m.m.m.m.m.m.m.m.m.",
"m.m.m.m.m.m.m.m.m.m.m.m.m.m.m.m.m.m.m.m.m.m.m.m.m.m.m.m.m.m.m.m.m.m.m.m.m.m.m.m.m.m.m.m.m.m.m.m.m.m.m.m.m.m.m.m.m.m.m.m.m.m.m.m.",
"m.m.m.m.m.m.m.m.m.m.m.m.m.m.m.m.m.m.m.m.m.m.m.m.m.m.m.m.m.m.m.m.m.m.m.m.m.m.m.m.m.m.m.m.m.m.m.m.m.m.m.m.m.m.m.m.m.m.m.m.m.m.m.m.",
"m.m.m.m.m.m.m.m.m.m.m.m.m.m.m.m.m.m.m.m.m.m.m.m.m.m.m.m.m.m.m.m.m.m.m.m.m.m.m.m.m.m.m.m.m.m.m.m.m.m.m.m.m.m.m.m.m.m.m.m.m.m.m.m.",
"m.m.m.m.m.m.m.m.m.m.m.m.m.m.m.m.m.m.m.m.m.m.m.m.m.m.m.m.m.m.m.m.m.m.m.m.m.m.m.m.m.m.m.m.m.m.m.m.m.m.m.m.m.m.m.m.m.m.m.m.m.m.m.m.",
"m.m.m.m.m.m.m.m.m.m.m.m.m.m.m.m.m.m.m.m.m.m.m.m.m.m.m.m.m.m.m.m.m.m.m.m.m.m.m.m.m.m.m.m.m.m.m.m.m.m.m.m.m.m.m.m.m.m.m.m.m.m.m.m.",
"m.m.m.m.m.m.m.m.m.m.m.m.m.m.m.m.m.m.m.m.m.m.m.m.m.m.m.m.m.m.m.m.m.m.m.m.m.m.m.m.m.m.m.m.m.m.m.m.m.m.m.m.m.m.m.m.m.m.m.m.m.m.m.m.",
"m.m.m.m.m.m.m.m.m.m.m.m.m.m.m.m.m.m.m.m.m.m.m.m.m.m.m.m.m.m.m.m.m.m.m.m.m.m.m.m.m.m.m.m.m.m.m.m.m.m.m.m.m.m.m.m.m.m.m.m.m.m.m.m.",
"m.m.m.m.m.m.m.m.m.m.m.m.m.m.m.m.m.m.m.m.m.m.m.m.m.m.m.m.m.m.m.m.m.m.m.m.m.m.m.m.m.m.m.m.m.m.m.m.m.m.m.m.m.m.m.m.m.m.m.m.m.m.m.m.",
"m.m.m.m.m.m.m.m.m.m.m.m.m.m.m.m.m.m.m.m.m.m.m.m.m.m.m.m.m.m.m.m.m.m.m.m.m.m.m.m.m.m.m.m.m.m.m.m.m.m.m.m.m.m.m.m.m.m.m.m.m.m.m.m.",
"m.m.m.m.m.m.m.m.m.m.m.m.m.m.m.m.m.m.m.m.m.m.m.m.m.m.m.m.m.m.m.m.m.m.m.m.m.m.m.m.m.m.m.m.m.m.m.m.m.m.m.m.m.m.m.m.m.m.m.m.m.m.m.m.",
"m.m.m.m.m.m.m.m.m.m.m.m.m.m.m.m.m.m.m.m.m.m.m.m.m.m.m.m.m.m.m.m.m.m.m.m.m.m.m.m.m.m.m.m.m.m.m.m.m.m.m.m.m.m.m.m.m.m.m.m.m.m.m.m.",
"m.m.m.m.m.m.m.m.m.m.m.m.m.m.m.m.m.m.m.m.m.m.m.m.m.m.m.m.m.m.m.m.m.m.m.m.m.m.m.m.m.m.m.m.m.m.m.m.m.m.m.m.m.m.m.m.m.m.m.m.m.m.m.m.",
"m.m.m.m.m.m.m.m.m.m.m.m.m.m.m.m.m.m.m.m.m.m.m.m.m.m.m.m.m.m.m.m.m.m.m.m.m.m.m.E m.m.m.m.m.m.m.m.m.m.m.m.m.m.m.m.m.m.m.m.m.m.m.m.",
"m.m.m.m.m.m.m.m.m.m.m.m.m.m.m.m.m.m.m.m.m.m.m.m.m.g g m.m.m...| { } | O.m.m.Q Q m.m.m.m.m.m.m.m.m.m.m.m.m.m.m.m.m.m.m.m.m.m.m.m.",
"m.m.m.m.m.m.m.m.m.m.m.m.m.m.m.m.m.m.m.m.m.m.m.m.m.s Q f m.f ..' _ ( a a E ! g E m.m.m.m.m.m.m.m.m.m.m.m.m.m.m.m.m.m.m.m.m.m.m.m.",
"m.m.m.m.m.m.m.m.m.m.m.m.m.m.m.m.m.m.m.m.m.m.m.m.m.9 E Q s s g ! E Y d ! % 5 a E m.m.m.m.m.m.m.m.m.m.m.m.m.m.m.m.m.m.m.m.m.m.m.m.",
"m.m.m.m.m.m.m.m.m.m.m.m.m.m.m.m.m.m.m.m.m.m.m.m.m.% E z Q s E ^ X.2.k a i s a g m.m.m.m.m.m.m.m.m.m.m.m.m.m.m.m.m.m.m.m.m.m.m.m.",
"m.m.m.m.m.m.m.m.m.m.m.m.m.m.m.m.m.m.m.m.m.m.m.m.m.% a f E f a r T 6.w 5 f g a E m.m.m.m.m.m.m.m.m.m.m.m.m.m.m.m.m.m.m.m.m.m.m.m.",
"m.m.m.m.m.m.m.m.m.m.m.m.m.m.m.m.m.m.m.m.m.m.m.m.m.m.; d f g g u [ 7.q s f a a l m.m.m.m.m.m.m.m.m.m.m.m.m.m.m.m.m.m.m.m.m.m.m.m.",
"m.m.m.m.m.m.m.m.m.m.m.m.m.m.m.m.m.m.m.m.m.m.m.m.m.m.2 d z g g t P s.= a s i l B m.m.m.m.m.m.m.m.m.m.m.m.m.m.m.m.m.m.m.m.m.m.m.m.",
"m.m.m.m.m.m.m.m.m.m.m.m.m.m.m.m.m.m.m.m.m.m.m.m.m.m.9.U h g a w ] f.7 8 > x L y.y.m.m.m.m.m.m.m.m.m.m.m.m.m.m.m.m.m.m.m.m.m.m.m.",
"m.m.m.m.m.m.m.m.m.m.m.m.m.m.m.m.m.m.m.m.m.m.m.m.m.m.I u.8.R f e 5.d.K J K R p.>.  m.m.m.m.m.m.m.m.m.m.m.m.m.m.m.m.m.m.m.m.m.m.m.",
"m.m.m.m.m.m.m.m.m.m.m.m.m.m.m.m.m.m.m.m.m.m.m.m.m.* * : >.y.e.4.0.a.w.q.y.p.3.#   m.m.m.m.m.m.m.m.m.m.m.m.m.m.m.m.m.m.m.m.m.m.m.",
"m.m.m.m.m.m.m.m.m.m.m.m.m.m.m.m.m.m.m.m.m.m.m.m.m.a s 8 & 1 :.r.y.t.r.y.,.1   8 8 s ) m.m.m.m.m.m.m.m.m.m.m.m.m.m.m.m.m.m.m.m.m.",
"m.m.m.m.m.m.m.m.m.m.m.m.m.m.m.m.m.m.m.m.m.m.m.m.9 s a 5 ^   . @ @ @ X @       a s i 9 9 m.m.m.m.m.m.m.m.m.m.m.m.m.m.m.m.m.m.m.m.",
"m.m.m.m.m.m.m.m.m.m.m.m.m.m.m.m.m.m.m.m.m.m.m.m.9 a J g !     o # # # + % .   E 5 % 8 8 m.m.m.m.m.m.m.m.m.m.m.m.m.m.m.m.m.m.m.m.",
"m.m.m.m.m.m.m.m.m.m.m.m.m.m.m.m.m.m.m.m.m.m.m.m.8 k h g z % o 5 6 9 9 8 8 +   s 5 # 9 9 m.m.m.m.m.m.m.m.m.m.m.m.m.m.m.m.m.m.m.m.",
"m.m.m.m.m.m.m.m.m.m.m.m.m.m.m.m.m.m.m.m.m.m.m.m.2 g h g Q   5 9 6 8 9 8 5 . . a 5 % 9 i m.m.m.m.m.m.m.m.m.m.m.m.m.m.m.m.m.m.m.m.",
"m.m.m.m.m.m.m.m.m.m.m.m.m.m.m.m.m.m.m.m.m.m.m.m.8 f g z z o   # #   # .     i a 5 8 5 9 m.m.m.m.m.m.m.m.m.m.m.m.m.m.m.m.m.m.m.m.",
"m.m.m.m.m.m.m.m.m.m.m.m.m.m.m.m.m.m.m.m.m.m.m.m.8 d h E z E Q #   %   + Q g a 8 8 5 5 8 m.m.m.m.m.m.m.m.m.m.m.m.m.m.m.m.m.m.m.m.",
"m.m.m.m.m.m.m.m.m.m.m.m.m.m.m.m.m.m.m.m.m.m.m.m.6 a h h k z f a j.n.k.o.5 8 6 a 5 i 9 m.m.m.m.m.m.m.m.m.m.m.m.m.m.m.m.m.m.m.m.m.",
"m.m.m.m.m.m.m.m.m.m.m.m.m.m.m.m.m.m.m.m.m.m.m.m.5 a h g h E J 9  .n.n.z.% 5 9 9 5 a 9 m.m.m.m.m.m.m.m.m.m.m.m.m.m.m.m.m.m.m.m.m.",
"m.m.m.m.m.m.m.m.m.m.m.m.m.m.m.m.m.m.m.m.m.m.m.m.% a g g s E J f z.v.v.c.% - f o % s m.m.m.m.m.m.m.m.m.m.m.m.m.m.m.m.m.m.m.m.m.m.",
"m.m.m.m.m.m.m.m.m.m.m.m.m.m.m.m.m.m.m.m.m.m.m.m.+ 6 i a a E k ^ n.{ n.b.{ - i . f 8 m.m.m.m.m.m.m.m.m.m.m.m.m.m.m.m.m.m.m.m.m.m.",
"m.m.m.m.m.m.m.m.m.m.m.m.m.m.m.m.m.m.m.m.m.m.m.m.m.% a a 0 s 6 g.n.#  .n.l.  # s 8 m.m.m.m.m.m.m.m.m.m.m.m.m.m.m.m.m.m.m.m.m.m.m.",
"m.m.m.m.m.m.m.m.m.m.m.m.m.m.m.m.m.m.m.m.m.m.m.m.m.m.# 5 9 5 W c.x.#   j.n.) 5 5 m.m.m.m.m.m.m.m.m.m.m.m.m.m.m.m.m.m.m.m.m.m.m.m.",
"m.m.m.m.m.m.m.m.m.m.m.m.m.m.m.m.m.m.m.m.m.m.m.m.m.m.+ . # 5 ^ c.! .   % l.^ #   m.m.m.m.m.m.m.m.m.m.m.m.m.m.m.m.m.m.m.m.m.m.m.m.",
"m.m.m.m.m.m.m.m.m.m.m.m.m.m.m.m.m.m.m.m.m.m.m.m.m.m.E o % # # $   5 +   o   # f m.m.m.m.m.m.m.m.m.m.m.m.m.m.m.m.m.m.m.m.m.m.m.m.",
"m.m.m.m.m.m.m.m.m.m.m.m.m.m.m.m.m.m.m.m.m.m.m.m.m.a E - h % 2 *   6 % # # 5 # E 5 m.m.m.m.m.m.m.m.m.m.m.m.m.m.m.m.m.m.m.m.m.m.m.",
"m.m.m.m.m.m.m.m.m.m.m.m.m.m.m.m.m.m.m.m.m.m.m.m.m.h g h s $ 9 9 o 8 5 a # 5 5 f E m.m.m.m.m.m.m.m.m.m.m.m.m.m.m.m.m.m.m.m.m.m.m.",
"m.m.m.m.m.m.m.m.m.m.m.m.m.m.m.m.m.m.m.m.m.m.m.m.m.Q a W % 6 8 5 # s - 5 6 # z - Q m.m.m.m.m.m.m.m.m.m.m.m.m.m.m.m.m.m.m.m.m.m.m.",
"m.m.m.m.m.m.m.m.m.m.m.m.m.m.m.m.m.m.m.m.m.m.m.m.E h 0 ! # s 6 8 # a 5 % f o s 5 s ~ m.m.m.m.m.m.m.m.m.m.m.m.m.m.m.m.m.m.m.m.m.m.",
"m.m.m.m.m.m.m.m.m.m.m.m.m.m.m.m.m.m.m.m.m.m.m.m.$ $ - ^ o Q % s % a y # E # i 6 # p m.m.m.m.m.m.m.m.m.m.m.m.m.m.m.m.m.m.m.m.m.m.",
"m.m.m.m.m.m.m.m.m.m.m.m.m.m.m.m.m.m.m.m.m.m.m.m.A   g ^   ! o E # 8 a   z 5 O p b =.m.m.m.m.m.m.m.m.m.m.m.m.m.m.m.m.m.m.m.m.m.m.",
"m.m.m.m.m.m.m.m.m.m.m.m.m.m.m.m.m.m.m.m.m.m.m.m.%.N Z p : y . k . % f   % V n *.G +.m.m.m.m.m.m.m.m.m.m.m.m.m.m.m.m.m.m.m.m.m.m.",
"m.m.m.m.m.m.m.m.m.m.m.m.m.m.m.m.m.m.m.m.m.m.m.m.m.#.1.S m F < H v M H , D ;.S *.@.m.m.m.m.m.m.m.m.m.m.m.m.m.m.m.m.m.m.m.m.m.m.m.",
"m.m.m.m.m.m.m.m.m.m.m.m.m.m.m.m.m.m.m.m.m.m.m.m.m.m.=.A *.&.G <.+.@.-.$.@.<.m.m.m.m.m.m.m.m.m.m.m.m.m.m.m.m.m.m.m.m.m.m.m.m.m.m.",
"m.m.m.m.m.m.m.m.m.m.m.m.m.m.m.m.m.m.m.m.m.m.m.m.m.m.m.m.m.m.m.m.m.m.m.m.m.m.m.m.m.m.m.m.m.m.m.m.m.m.m.m.m.m.m.m.m.m.m.m.m.m.m.m.",
"m.m.m.m.m.m.m.m.m.m.m.m.m.m.m.m.m.m.m.m.m.m.m.m.m.m.m.m.m.m.m.m.m.m.m.m.m.m.m.m.m.m.m.m.m.m.m.m.m.m.m.m.m.m.m.m.m.m.m.m.m.m.m.m.",
"m.m.m.m.m.m.m.m.m.m.m.m.m.m.m.m.m.m.m.m.m.m.m.m.m.m.m.m.m.m.m.m.m.m.m.m.m.m.m.m.m.m.m.m.m.m.m.m.m.m.m.m.m.m.m.m.m.m.m.m.m.m.m.m.",
"m.m.m.m.m.m.m.m.m.m.m.m.m.m.m.m.m.m.m.m.m.m.m.m.m.m.m.m.m.m.m.m.m.m.m.m.m.m.m.m.m.m.m.m.m.m.m.m.m.m.m.m.m.m.m.m.m.m.m.m.m.m.m.m.",
"m.m.m.m.m.m.m.m.m.m.m.m.m.m.m.m.m.m.m.m.m.m.m.m.m.m.m.m.m.m.m.m.m.m.m.m.m.m.m.m.m.m.m.m.m.m.m.m.m.m.m.m.m.m.m.m.m.m.m.m.m.m.m.m.",
"m.m.m.m.m.m.m.m.m.m.m.m.m.m.m.m.m.m.m.m.m.m.m.m.m.m.m.m.m.m.m.m.m.m.m.m.m.m.m.m.m.m.m.m.m.m.m.m.m.m.m.m.m.m.m.m.m.m.m.m.m.m.m.m.",
"m.m.m.m.m.m.m.m.m.m.m.m.m.m.m.m.m.m.m.m.m.m.m.m.m.m.m.m.m.m.m.m.m.m.m.m.m.m.m.m.m.m.m.m.m.m.m.m.m.m.m.m.m.m.m.m.m.m.m.m.m.m.m.m.",
"m.m.m.m.m.m.m.m.m.m.m.m.m.m.m.m.m.m.m.m.m.m.m.m.m.m.m.m.m.m.m.m.m.m.m.m.m.m.m.m.m.m.m.m.m.m.m.m.m.m.m.m.m.m.m.m.m.m.m.m.m.m.m.m.",
"m.m.m.m.m.m.m.m.m.m.m.m.m.m.m.m.m.m.m.m.m.m.m.m.m.m.m.m.m.m.m.m.m.m.m.m.m.m.m.m.m.m.m.m.m.m.m.m.m.m.m.m.m.m.m.m.m.m.m.m.m.m.m.m.",
"m.m.m.m.m.m.m.m.m.m.m.m.m.m.m.m.m.m.m.m.m.m.m.m.m.m.m.m.m.m.m.m.m.m.m.m.m.m.m.m.m.m.m.m.m.m.m.m.m.m.m.m.m.m.m.m.m.m.m.m.m.m.m.m.",
"m.m.m.m.m.m.m.m.m.m.m.m.m.m.m.m.m.m.m.m.m.m.m.m.m.m.m.m.m.m.m.m.m.m.m.m.m.m.m.m.m.m.m.m.m.m.m.m.m.m.m.m.m.m.m.m.m.m.m.m.m.m.m.m.",
"m.m.m.m.m.m.m.m.m.m.m.m.m.m.m.m.m.m.m.m.m.m.m.m.m.m.m.m.m.m.m.m.m.m.m.m.m.m.m.m.m.m.m.m.m.m.m.m.m.m.m.m.m.m.m.m.m.m.m.m.m.m.m.m.",
"m.m.m.m.m.m.m.m.m.m.m.m.m.m.m.m.m.m.m.m.m.m.m.m.m.m.m.m.m.m.m.m.m.m.m.m.m.m.m.m.m.m.m.m.m.m.m.m.m.m.m.m.m.m.m.m.m.m.m.m.m.m.m.m.",
"m.m.m.m.m.m.m.m.m.m.m.m.m.m.m.m.m.m.m.m.m.m.m.m.m.m.m.m.m.m.m.m.m.m.m.m.m.m.m.m.m.m.m.m.m.m.m.m.m.m.m.m.m.m.m.m.m.m.m.m.m.m.m.m.",
"m.m.m.m.m.m.m.m.m.m.m.m.m.m.m.m.m.m.m.m.m.m.m.m.m.m.m.m.m.m.m.m.m.m.m.m.m.m.m.m.m.m.m.m.m.m.m.m.m.m.m.m.m.m.m.m.m.m.m.m.m.m.m.m."
};
