/* XPM */
static char *result[] = {
/* columns rows colors chars-per-pixel */
"64 64 149 2 ",
"   c #0E1D0D",
".  c #111F0A",
"X  c #071717",
"o  c #091517",
"O  c #061D15",
"+  c #0A1C13",
"@  c #04131F",
"#  c #091619",
"$  c #041B1B",
"%  c #0C1B19",
"&  c #0F2607",
"*  c #07260F",
"=  c #0B250C",
"-  c #0D2A0D",
";  c #142603",
":  c #1A2705",
">  c #152905",
",  c #1B2B05",
"<  c #12240B",
"1  c #1A260B",
"2  c #142B0C",
"3  c #1B2C0B",
"4  c #0D360E",
"5  c #163104",
"6  c #183602",
"7  c #143B07",
"8  c #193B04",
"9  c #15320C",
"0  c #1C320D",
"q  c #153C0D",
"w  c #1C3A0C",
"e  c #052513",
"r  c #0B2413",
"t  c #062A13",
"y  c #0D2B13",
"u  c #05221A",
"i  c #0B241B",
"p  c #062A19",
"a  c #0C2B1B",
"s  c #132513",
"d  c #192413",
"f  c #132D14",
"g  c #1A2D13",
"h  c #13261A",
"j  c #1D271D",
"k  c #132C1A",
"l  c #1B2E1C",
"z  c #073313",
"x  c #0C3314",
"c  c #0C3C14",
"v  c #0D331A",
"b  c #0F3A1A",
"n  c #153314",
"m  c #1B3414",
"M  c #133C14",
"N  c #1C3B15",
"B  c #14341B",
"V  c #1B341B",
"C  c #153B1B",
"Z  c #1C3B1B",
"A  c #212D04",
"S  c #212F0D",
"D  c #23310D",
"F  c #232E1B",
"G  c #233313",
"H  c #293415",
"J  c #223A14",
"K  c #293917",
"L  c #24341B",
"P  c #29331A",
"I  c #223C1B",
"U  c #2C3A1D",
"Y  c #323C1C",
"T  c #000728",
"R  c #021122",
"E  c #0C1F21",
"W  c #0D2622",
"Q  c #0C2B20",
"!  c #132C23",
"~  c #153323",
"^  c #1A3422",
"/  c #163B22",
"(  c #1C3B23",
")  c #173229",
"_  c #1E3C2B",
"`  c #212C20",
"'  c #233423",
"]  c #2A3526",
"[  c #223C22",
"{  c #2C3C23",
"}  c #223F2B",
"|  c #2F3D2A",
" . c #313C21",
".. c #1A4807",
"X. c #13420F",
"o. c #19410B",
"O. c #144D0F",
"+. c #1E4E0F",
"@. c #144214",
"#. c #1C4215",
"$. c #144C14",
"%. c #1B4A16",
"&. c #15441B",
"*. c #1B451B",
"=. c #164F1D",
"-. c #1D4B1C",
";. c #155115",
":. c #195611",
">. c #175B14",
",. c #155319",
"<. c #1B531B",
"1. c #214516",
"2. c #214E13",
"3. c #2A4A17",
"4. c #23421B",
"5. c #29441E",
"6. c #23491C",
"7. c #2D4A1B",
"8. c #37441F",
"9. c #225316",
"0. c #22531B",
"q. c #2C511D",
"w. c #225B1C",
"e. c #22651D",
"r. c #216D1A",
"t. c #1D4324",
"y. c #174821",
"u. c #1D4B22",
"i. c #1C4028",
"p. c #1F5522",
"a. c #234323",
"s. c #2C4525",
"d. c #224C23",
"f. c #294B26",
"g. c #24442A",
"h. c #294628",
"j. c #244A2A",
"k. c #2B4D2B",
"l. c #334222",
"z. c #384224",
"x. c #35442A",
"c. c #245623",
"v. c #225A23",
"b. c #27512D",
"n. c #2B512C",
"m. c #2A592B",
"M. c #2D5031",
"N. c #30612B",
"B. c None",
/* pixels */
"B.B.B.B.B.B.B.B.B.B.B.B.B.B.B.B.B.B.B.B.B.B.B.B.B.B.B.B.B.B.B.B.B.B.B.B.B.B.B.B.B.B.B.B.B.B.B.B.B.B.B.B.B.B.B.B.B.B.B.B.B.B.B.B.",
"B.B.B.B.B.B.B.B.B.B.B.B.B.B.B.B.B.B.B.B.B.B.B.B.B.B.B.B.B.B.B.B.B.B.B.B.B.B.B.B.B.B.B.B.B.B.B.B.B.B.B.B.B.B.B.B.B.B.B.B.B.B.B.B.",
"B.B.B.B.B.B.B.B.B.B.B.B.B.B.B.B.B.B.B.B.B.B.B.B.B.B.B.B.B.B.B.B.B.B.B.B.B.B.B.B.B.B.B.B.B.B.B.B.B.B.B.B.B.B.B.B.B.B.B.B.B.B.B.B.",
"B.B.B.B.B.B.B.B.B.B.B.B.B.B.B.B.B.B.B.B.B.B.B.B.B.B.B.B.B.B.B.B.B.B.B.B.B.B.B.B.B.B.B.B.B.B.B.B.B.B.B.B.B.B.B.B.B.B.B.B.B.B.B.B.",
"B.B.B.B.B.B.B.B.B.B.B.B.B.B.B.B.B.B.B.B.B.B.B.B.B.B.B.B.B.B.B.B.B.B.B.B.B.B.B.B.x @.c B.C Z B.B.B.B.B.B.B.B.B.B.B.B.B.B.B.B.B.B.",
"B.B.B.B.B.B.B.B.B.B.B.B.B.B.B.B.B.B.B.B.B.B.B.B.B.B.B.B.B.B.B.B.B.B.B.B.B.v C B a c c -.-.6.B.B.B.B.B.B.B.B.B.B.B.B.B.B.B.B.B.B.",
"B.B.B.B.B.B.B.B.B.B.B.B.B.B.B.B.B.B.B.B.B.B.B.B.B.i.u.B.B.a / B.B.B.B.B.B.k Z Z a g @.B B B.B.B.B.B.B.B.B.B.B.B.B.B.B.B.B.B.B.B.",
"B.B.B.B.B.B.B.B.B.B.B.B.B.B.B.B.B.B.B.B.B.B.B.B.B.B.u.) v ~ ! r r B.u B.B.i a y M I l O p B.B.B.B.B.B.B.B.B.B.B.B.B.B.B.B.B.B.B.",
"B.B.B.B.B.B.B.B.B.B.B.B.B.B.B.B.B.B.B.B.B.B.B.B.B.B.Q ( t.*.k B ,.Q i.g.B.e e & X.#.G r e B.B.B.B.B.B.B.B.B.B.B.B.B.B.B.B.B.B.B.",
"B.B.B.B.B.B.B.B.B.B.B.B.B.B.B.B.B.B.B.B.B.B.B.B.B.B.B.i B 0.V y.,.) i.B.B.O * e 4 9 G L N B B.B.B.B.B.B.B.B.B.B.B.B.B.B.B.B.B.B.",
"B.B.B.B.B.B.B.B.B.B.B.B.B.B.B.B.B.B.B.B.B.B.B.B.B.B.B.a a.q.4.r = p u B.p u p X.x L L g 4.4.4.B.B.B.B.B.B.B.B.B.B.B.B.B.B.B.B.B.",
"B.B.B.B.B.B.B.B.B.B.B.B.B.B.B.B.B.B.B.B.B.B.B.B.B.B.p B I 7.0.2 = e t u $ $ @.q 4 6.( t 2 C 6.4.I B.B.B.B.B.B.B.B.B.B.B.B.B.B.B.",
"B.B.B.B.B.B.B.B.B.B.B.B.B.B.B.B.B.B.B.B.B.B.B.B.B./ u.6.m U 1.n t a r e ; < = = x 6.k z 5 - B 4.I C B B.B.B.B.B.B.B.B.B.B.B.B.B.",
"B.B.B.B.B.B.B.B.B.B.B.B.B.B.B.B.B.B.B.B.B.B.B.B./ m.c.M &.6.Z N y ~ a r B + + ; 9 C B c z > > B.B.a p B.B.B.B.B.B.B.B.B.B.B.B.B.",
"B.B.B.B.B.B.B.B.B.B.B.B.B.B.B.B.B.B.B.B.B.B.Q ) b.b.k y b Z V n < O ! ) ) k * ; < F d t z z - > B.B.B.B.B.B.B.B.B.B.B.B.B.B.B.B.",
"B.B.B.B.B.B.B.B.B.B.B.B.B.B.B.B.B.B.B.B.v y.p.i.g.a.N v C t.B v - r < 0 B Z y t r ` g 2 & = c O.q B.B.B.B.B.B.B.B.B.B.B.B.B.B.B.",
"B.B.B.B.B.B.B.B.B.B.B.B.B.B.B.B.B.B.B.B.b &./ j.N m m n C i.B N Z O s   . m 9 = r F G g . ; = x ;.r V I I ^ B.B.B.B.B.B.B.B.B.B.",
"B.B.B.B.B.B.B.B.B.B.B.B.B.B.B.B.B.B.B.B.B.B.B.> > y a t B -.k < 3 ; s ^ } g.[ 0 1 P G 1   ; ; # 9 *.I 4.I B.B.B.B.B.B.B.B.B.B.B.",
"B.B.B.B.B.B.B.B.B.B.B.B.B.B.B.B.O B.B.$ B.B.2 Z y * m y 0 l d 2 ; ; ; 3 s.l ' I G 3 3 + . ; ; . s 4.I *.M B.B.B.B.B.B.B.B.B.B.B.",
"B.B.B.B.B.B.B.B.B.B.B.B.B.u p a B &.Q $ B.& y B f 3 k < M *.^ 6.w ; ; ; ; < + V a.4.0 X . ; B.. o + ; k C m k B.B.B.B.B.B.B.B.B.",
"B.B.B.B.B.B.B.B.B.B.B.B.B.W ! / <.C Q R R X r $ s : < s G g l 4.8 ; ; ; ; ; ; < < ~ [ B & = ; ; B.T B.B.l 4.I 0 ; B.B.B.B.B.B.B.",
"B.B.B.B.B.B.B.B.B.B.B.B.B.B.C a.*.B x $ $ =   + ; ; . V 7.H Y : 6 ; ; ; ; ; ; & + + i g.4.f t ; ; B.B.B.B.I 5.I 3 B.B.B.B.B.B.B.",
"B.B.B.B.B.B.B.B.B.B.B.B.B.i / Z f m V B r + + . ; ; : h U D H G ; ; ; ; ; g a   V f E ! / V Z f ; ; B.B.B.B.5.5.B.B.B.B.B.B.B.B.",
"B.B.B.B.B.B.B.B.B.B.B.B.u ! C &.B / *./ ) ^ % . B.; f ^ V 8 3.J ; ; ; ; ; m g.i.u.! i i a i } / ^ h 2 ; B.B.B.B.B.B.B.B.B.B.B.B.",
"B.B.B.B.B.B.B.B.B.B.p v B 4.Z *./ v -.N i._ / n ; * y B L n -.L 2 ; ; ; ; ; a j.d.d.p.y.~ i V h.h.k.a.- & & B.B.B.B.B.B.B.B.B.B.",
"B.B.B.B.B.B.B.B.B.B.x 4.[ [ n q / t.u.Z m a.k y e e m n V ( Z '   = ; > ; ; e a Z c./ y.i O r f h.d.B e p - & ; B.B.B.B.B.B.B.B.",
"B.B.B.B.B.B.B.B.B.B.I [ [ 2 6 w ] g 4 v Z I 0 = = B I N ^ { k.h.' X O O * < t B L U - = - * O   > B.B.e B.e r m Z N B.B.B.B.B.B.",
"B.B.B.B.B.B.B.B.9 w.f.V > 8 B.w | g 2 < - C k + E W s i k ` h.I l     O X r <.%.K B y M C * = O = ; B.B.B.B.r B I 6.4.N B.B.B.B.",
"B.B.B.B.B.B.B.t p.c.w ; > ; ; H { K l 2 m [ / ) h l y + & { x.g.r * ; ; p i.p.M Q ^ B B ~ i e O + e = B.B.O O v r f N N B.B.B.B.",
"B.B.B.B.B.k k W _ w ; ; ; ; ; H U 4.k > 2 s l a._ C r 3 ; g { { a u e $ ! j.0.z i C ;.:.$.Z y ~ / y e B.B.B.r i y B.B.k B B.B.B.",
"B.B.B.k <.*./ _ a B.; ; ; ; > g 2 V k & ; . # ; ( _ ^ N > h V { f e e t.N m f y z v n = B 6.Z I B g.Z f B.B.r B.B m B.B.m n B.B.",
"B.B.B <.r.*.4.~ < B.B.; ; > 2 y g B N @.#.0 k X e i d 3 ; r V g 9 - 2 B > * C y n j 3 ; 2 h / B 2 n a.Z f.B.& B.y Z m B.B.N B.B.",
"B.B.B.B.M ( 2 C 0 B.; + i i B y.Z ! M %.@.%.q f r * & * r y g i f 5 < & y @.Z M m ] G ; ; > 4.d.2.o.0 Z 4.B.B.B.r *.1.B.B.m n B.",
"B.B.B.B.f B.= B 0 = $ a r 2 n @.B B B 2 3 M N %.%.n & * * = s W } g.! B t.2.N g I ] g ; & ; > m I @.C 0 m m B.B.B.0 9.1.B.B.n B.",
"B.B.B.k k B.= k 2 t g n 7 k C -.a m J B 9 ; ; M &.n - 2 = O X y ( _ / V V ; ; l K { Y ; ; ; ; ; ; n v.v.*.I B.f.B.B.0 <.2.B.B.B.",
"B.B.B.k k B.O k t ; 5 ..4 * q 1.) f 0 C B y 2 r = y B *.#.@.v ~ ) g i + ; ; ; V J l.z., ; ; > & ; 9 m.v.t.M $.e.B.B.= -.w.B.B.B.",
"B.B.B.i B.B.k n B.; B.; 2 4 9 I s.t = n / ( ( - & B.n u.a.<.-.! h < @ X 2 < - B m { { : ; ; ; ; ; ; [ } ( u.%.p.w.c.B y *.#.B.B.",
"B.B.B.O B.B.9 2 B.B.; 0 @.$.C g.{ r - - y Z t.B 2 p O &.*.a.g.V f = i I J a C Z V [ ' V m ; ; ; B.; %.j.[ h.V Z @.*.V B.f k B.B.",
"B.B.B.B.B.B.2 < B.; n #.6.a.~ a.! B @.& e k 4.n f = r B / 9 g B m r 4.I B n I V ! h.} k.m.C m : ; B.7 j.I k.( B.B.= & B.  O B.B.",
"B.B.B.B.B.B.B.B.& 2 @.-.j./ m m > C C t B.n I > B y = : a.1.f < m I m - & ; 2 ) ( a.t.a.Z I W / 3 B.: t.6.B.a.%.B.B.B.B.; B.B.B.",
"B.B.B.B.B.B.B.- n $.>.M Z n - s 2 5 V k 2 0 J 2 n m < ; m -.0 Z C a - ; ; ; k m #.u.^ a * > * ( [ B.B.V *.B.C c.B.B.B.B.; B.B.B.",
"B.B.B.B.V B @.%.d.<.7 < * t : d m : 3 f v n 0 * B.n + < m 4.*.a.N ; ; ; m a V m 2 g.I k - * ; 0 I 3 B.B.C B.B.B B.B.B.B.; B.B.B.",
"B.B.B.3 Z 2 M u.t.N ; = = B., H H > ; + 2 2 , B.B.: m B / Z p.Z 0 3 ; C j.y.4.m g g.x.q - & - ; J , ; B.B B.B.^ B.B.B.B.B.B.B.B.",
"B.B.B.B.B.B.I B.*.L B.= & B.5 H P A B.+ & B.3 ;     m *.+ < Z *.0 2 / k.c.-.@.= C s.x.2 = ; ; B.B.; ; B.y n B.i i B.B.B.B.B.B.B.",
"B.B.B.B.B.m 5.B.N I B.; * ; 2 D  .A B.B.< . B.; 5 u.*.B.y & n Z m C t.4.B 4 = = ( { ( B y 2 , ; ; ; ; B.& B.B.B.B.B.B.B.B.B.B.B.",
"B.B.B.B.B.B.B.B.0 I B.B.B.> G I { S ; B.; ; ; ; 6.N.B.< ~ B N m m *.N n / < & = ) g.k.^ ~ 6.6.w & > , B.; B.B.B.B.B.B.B.B.B.B.B.",
"B.B.B.B.B.B.B.B., B.B.B.; 0 ' G V L > B.B.B.; J f.B.; y ( s f , I 6.2 f m 2 e V g.d.U I B t.v.#.; B.n B.B.B.B.B.B.B.B.B.B.B.B.B.",
"B.B.B.B.B.B.B.B.; B.B.B.2 L V J G  .D * B.B.B.m B.B.n Z m s > > Z g : ; 0 m t.k.c.3.V m 2 ( %.C C #.M - B.B.B.B.B.B.B.B.B.B.B.B.",
"B.B.B.B.B.B.B.B.B.B.B.B.k m K m , H G ; B.B.B.B.B.; 4.I : - > - m f : ; = C a.4.w G ` H 9 a 4.4.f.m.c.d.a.t.n B.B.B.B.B.B.B.B.B.",
"B.B.B.B.B.B.B.B.B.B.B.B.2 3 G 1 2 A D : B.B.B.B.< ^ I 0 : 2 : 2 G : 2 2 k Z m m : H F Y 3 = < B.J f.k.j.n.Z B < B.B.B.B.B.B.B.B.",
"B.B.B.B.B.B.B.B.B.B.B.B.1 3 2 , : 3 3 , : B.B.B.k ^ m m 3 : ; ; 3 3 3 n y f ^ 3 , K L 8.K B.B.B.B.0 k.B.a.7.B.B.; B.B.B.B.B.B.B.",
"B.B.B.B.B.B.B.B.B.B.B.B.B.3 3 , , : : B.1 B.B.B.! V 2 Z 1 ; 2 1 2 D A 2 < k g B.A P G l.H B.B.B.B.B.I B.B.4.B.B.B.B.B.B.B.B.B.B.",
"B.B.B.B.B.B.B.B.B.B.B.B.B.B.1 1 B.B.B.B.B.B.B.B.I 0 , 0 < : > , 3 2 : : > m B.B.D U K L Y B.B.B.B.B.4.I B.G B.B.B.B.B.B.B.B.B.B.",
"B.B.B.B.B.B.B.B.B.B.B.B.B.B.B.B.B.B.B.B.B.B.B.B.J 2 A 3 : > , A , 2 2 ; > 3 B.> G L m H K ; B.B.B.B.J B.B.B.B.B.B.B.B.B.B.B.B.B.",
"B.B.B.B.B.B.B.B.B.B.B.B.B.B.B.B.B.B.B.B.B.B.B.B.; ; B., ; A , , A 3 & ; B.B.B.2 G V G l U ; ; B.B.B.B.B.B.B.B.B.B.B.B.B.B.B.B.B.",
"B.B.B.B.B.B.B.B.B.B.B.B.B.B.B.B.B.B.B.B.B.B.B.B.B.B.B.; > B.B.A B.5 ; B.B.B.& : g g A g { 2 B.B.B.B.B.B.B.B.B.B.B.B.B.B.B.B.B.B.",
"B.B.B.B.B.B.B.B.B.B.B.B.B.B.B.B.B.B.B.B.B.B.B.B.B.B.; ; B.B.B.B.B.B.B.B.B.B.; , 3 S G 3 G y B.B.B.B.B.B.B.B.B.B.B.B.B.B.B.B.B.B.",
"B.B.B.B.B.B.B.B.B.B.B.B.B.B.B.B.B.B.B.B.B.B.B.B.B.B.B.B.B.B.B.B.B.B.B.B.B.B.1 D S 3 g 3 S 3 < B.B.B.B.B.B.B.B.B.B.B.B.B.B.B.B.B.",
"B.B.B.B.B.B.B.B.B.B.B.B.B.B.B.B.B.B.B.B.B.B.B.B.B.B.B.B.B.B.B.B.B.B.B.B.B.S 3 3 3 3 G g 3 1 2 B.B.B.B.B.B.B.B.B.B.B.B.B.B.B.B.B.",
"B.B.B.B.B.B.B.B.B.B.B.B.B.B.B.B.B.B.B.B.B.B.B.B.B.B.B.B.B.B.B.B.B.B.B.B.B.B.: 3 1 , S 1 < 1 d d B.B.B.B.B.B.B.B.B.B.B.B.B.B.B.B.",
"B.B.B.B.B.B.B.B.B.B.B.B.B.B.B.B.B.B.B.B.B.B.B.B.B.B.B.B.B.B.B.B.B.B.B.B.B.B.B.1 1 3 1 1 1 1 B.d B.B.B.B.B.B.B.B.B.B.B.B.B.B.B.B.",
"B.B.B.B.B.B.B.B.B.B.B.B.B.B.B.B.B.B.B.B.B.B.B.B.B.B.B.B.B.B.B.B.B.B.B.B.B.B.B.B.B.1 1 S B.B.B.B.B.B.B.B.B.B.B.B.B.B.B.B.B.B.B.B.",
"B.B.B.B.B.B.B.B.B.B.B.B.B.B.B.B.B.B.B.B.B.B.B.B.B.B.B.B.B.B.B.B.B.B.B.B.B.B.B.B.B.B.B.B.B.B.B.B.B.B.B.B.B.B.B.B.B.B.B.B.B.B.B.B.",
"B.B.B.B.B.B.B.B.B.B.B.B.B.B.B.B.B.B.B.B.B.B.B.B.B.B.B.B.B.B.B.B.B.B.B.B.B.B.B.B.B.B.B.B.B.B.B.B.B.B.B.B.B.B.B.B.B.B.B.B.B.B.B.B."
};
