/* XPM */
static char *result[] = {
/* columns rows colors chars-per-pixel */
"64 64 140 2 ",
"   c #0E1D0D",
".  c #101F0B",
"X  c #071717",
"o  c #0B1717",
"O  c #061C16",
"+  c #0B1C13",
"@  c #05151E",
"#  c #0A1718",
"$  c #051C1A",
"%  c #0B1B1A",
"&  c #101F15",
"*  c #111F18",
"=  c #0F2607",
"-  c #07260F",
";  c #0B250C",
":  c #0D2A0D",
">  c #142603",
",  c #182702",
"<  c #152A05",
"1  c #1A2B05",
"2  c #12240B",
"3  c #1A250B",
"4  c #142B0B",
"5  c #1A2D0B",
"6  c #0D340E",
"7  c #163304",
"8  c #193706",
"9  c #1A3C06",
"0  c #14320C",
"q  c #1B330D",
"w  c #153A0D",
"e  c #1A3A0C",
"r  c #052413",
"t  c #0B2413",
"y  c #062913",
"u  c #0C2B14",
"i  c #052219",
"p  c #0C241A",
"a  c #072A18",
"s  c #0C2B1B",
"d  c #122513",
"f  c #192515",
"g  c #142D14",
"h  c #192D13",
"j  c #12261A",
"k  c #1D271D",
"l  c #132C1A",
"z  c #1B2E1B",
"x  c #073313",
"c  c #0C3214",
"v  c #0D3B13",
"b  c #0D331A",
"n  c #0F3A1A",
"m  c #143314",
"M  c #1B3314",
"N  c #143C14",
"B  c #1B3B15",
"V  c #14341B",
"C  c #1B341B",
"Z  c #153B1B",
"A  c #1C3B1B",
"S  c #202D0F",
"D  c #23330D",
"F  c #222E12",
"G  c #212D1C",
"H  c #233414",
"J  c #283415",
"K  c #223B14",
"L  c #293917",
"P  c #23331B",
"I  c #223C1B",
"U  c #2B3A1D",
"Y  c #323C1D",
"T  c #0B1E20",
"R  c #0D2522",
"E  c #0F2923",
"W  c #132C22",
"Q  c #1D2B20",
"!  c #153323",
"~  c #1A3522",
"^  c #163B22",
"/  c #1C3B22",
"(  c #163128",
")  c #183628",
"_  c #1E3C2A",
"`  c #233523",
"'  c #2A3526",
"]  c #223C22",
"[  c #2B3C24",
"{  c #233F2B",
"}  c #2F3D2A",
"|  c #313B21",
" . c #13440F",
".. c #19410B",
"X. c #144D0F",
"o. c #1E4E0F",
"O. c #144214",
"+. c #1C4315",
"@. c #144C14",
"#. c #1B4A16",
"$. c #15441B",
"%. c #1B441B",
"&. c #164E1D",
"*. c #1D4A1B",
"=. c #155115",
"-. c #1B5512",
";. c #175B14",
":. c #165219",
">. c #1B531C",
",. c #224316",
"<. c #294417",
"1. c #2A4A17",
"2. c #22431B",
"3. c #2B431C",
"4. c #23491C",
"5. c #2B4A1C",
"6. c #225216",
"7. c #22531B",
"8. c #2C511C",
"9. c #225A1C",
"0. c #1C4323",
"q. c #1C4B21",
"w. c #1F5522",
"e. c #224324",
"r. c #2C4425",
"t. c #234B23",
"y. c #284B25",
"u. c #24442A",
"i. c #294528",
"p. c #244A2A",
"a. c #2C4D2D",
"s. c #324323",
"d. c #384224",
"f. c #35442A",
"g. c #235424",
"h. c #215C21",
"j. c #27532B",
"k. c #2D502D",
"l. c #2B592B",
"z. c #2D5031",
/* pixels */
"h 0 = : m O.A N m ' D > > < A t.4...q B 2.w q d t +.2.4 - 5 m p h 4 : : m / m Z M h > + + p V *./ W m #.O.#.e u t y 4 = r u g j ",
"{ u.W V / o.B h I ' h 4 2 > , B %.O.$.0 M B +.+.w 0 6.+.- g g R u.u.W g g +.0 m K ; % W p 4 c +.V V V 0 4 N +.+.*.m : - - - d R ",
"/ _ ~ C M > 3 l L | Y , > > > < > m w.w.%.B I %.N 4 q 6...+ o s / _ ~ z l < r l M t z 0 8 u n *.a M m s : 4 2 n O.g 4 = - + % y ",
"! g t o 2 , , ! K | d.1 > > < > < M g.g.0.m O.>.N c y +.9.O.c ~ ! g p j d ,   h g 5 7 e c : w #.! h A Z c c O.x ; n n +.%.N c ~ ",
"p 2 @ X 4 4 g ^ h | [ 1 , > > 0 5 < I { / q.>.>.9.7.V m $.*.$.W p ; @ i 4 : g V g 5 F > 0 6 0 I r.u B 4.*.v v t g Z b 0.0.9.%.W ",
"u V s A V q./ A C ] ` A m > , h ] 2 +.p.A r.C V N %.V B m C 0.C u z s j V %.m m h M 1 q ..O.N u.[ t y m V +.h s A A s Z %.e.u.C ",
"t W ! V ! 0.A C W u.{ a.l./ M 4 4 4 w p.A u.] N u - ; V p t g u t W V c ! 0.4 4 g 5 M +.t.0.! e.W V  .y i C K O.u u y C ! y g u ",
"! l %.0./ s 4 ! / e.0.] %.A p / 5 0 4 0.2.P 0.+.: ; ; h h V b :.C l 0.0./ s 4 h m m O.*.p./ M M 4 Z Z y u G K O.; y - m u.0.s :.",
"0.C 7.V p ; l C +.0.~ s ; < ; / ] < m C %.K Z *.c t   = 4 A ! &.0.m 7.V p : g m m O.;.O.m m : d 4 0 m M M H w 6 t t + = C 0.! &.",
"t 2.8.2.u a C q 4 u.] c t - > M K q K A Z r.I V N a i r < u V g r 4.8.I m m O.$.q.>.w = ; a < f M I 4.+.h ` C 6 O.c r r u s V g ",
"4 8.5.I V b 2.M m u.f.q : = : 5 B q 0 h m I y.z c N $ $ i a c : 4 8.<.M A u M q.t.A H : = = 5 I I 4.Z g - I t.u w v $ $ r a u - ",
"m %.L M e.w.Z t Z r.f.4 : , < M q 4 > 7 y m 4.u r ; 2 > - t s t m ,.J q e.+.A m A I U ; = g A I I C 4 0 x l 2.c - - > 2 t t l y ",
"B B 2.#.N g.g.V V ` ` b : 4 1 < 5 > > 6 : g A 4 ; + p V r j ! p N A B +.N B y.g K I / 2 t y u g H < < x v m A 0 = + t V t E ! t ",
"m V / n : l j.j.! ) e.^ ! t.4.e 4 < : 6 = g z 2 > = u ) ! ! + d m C C Z : M p.e.q ~ e.C g < D I < 4 x x y 3 z 2 < = l ! ! ! + ; ",
"b V 0.Z b A 0.u.p.w.q.V b 0.g.+.8 c d 2 < g G d y s A V q 2 ; : n b 0.Z m B %.{ M B 0.V 2 q H w X.v = - 2 h P d y a A C q 2 ; - ",
"B m 0.Z m M M M j.^ Z n y A #.Z Z N B ; 5 5 P t u 5 h 2 + d o A M m 0.Z s M M B q C V I I ~ p @.c d > = h H C t u 5 h 2 & j + A ",
"2 l t.m a u u 4 1 H Q H u m 2.A e.g.q.t.0.A M 3 q ] r.{ ~ g = < 4 l +.n c u u 4 1 H Q I I I +.m o 2 , . f D J 3 q ] [ { ~ d : < ",
"4 f l q u V - m A q F Y i s u t h y.p.0.a.I V 5 M ` l r.3 > > , 5 j Q 5 s m - u A h 4 N 2.I I d   1 , 2 + 5 S H I ` l r.3 > , , ",
"4.A 0.B 2 g 4 g V u 2 P j s $.Z y a ! C e.I K I 4   > > , > > 8 ,.A 0.B 2 g 5 g m u C C h 4 t o . 4 , ; O 5 2.2.C + > , > > > 8 ",
"2.C h H f . 4 2 $ + # T % E n >.^ W l M M 2.] t > > > > , > > 8 2.C H H d . < 2 g I I l d t % d > > = = C / ~ d < > > > , , > 8 ",
"1 U J 5.C 2 , 2 + . + $ $ c g %.e.m Z %.e.M j   2 , > , > > > 7 1 U J 3.C 2 , 1 2.I I j d i f 3 > u m / e.E $ + 2 = > > > > , 7 ",
"F J D U f > > , . o d g V B A u A ^ g V W t d C ; j g > > > , > F J D U j > , < H z d h l g 2 > g A C ~ E R g C   l d > > > , > ",
"K 1.8 P ~ 4 > > 2 * ! ! ^ 0.^ V O.^ E i p s l q.0.u.M > > > > > K 5.e P C h 2 = 2 * C g 4 q d / / u.p a p p E q.0.u.M > > > > > ",
"P #.h ~ V u - = m / _ 0.B q.b ! %.%.2.V n b Z t.u.u > , > . , 4 P #.h C V a = > h C g 4 - u.a.p.u.C i ! q.w.t.q.p.s > > > > > : ",
"` I ] C m M r - u l I M A t.0.Z w z u.A I V $.^ s r > > , = - + ` I ] C M M r = = = r r y V e.e.h t ; p $.^ g.A s r , > , = -   ",
"[ k.[ ~ B 2.V - ; q I A c c h [ e 7 4 ` { I L L m y = t O O X ~ [ a.` ~ B I B A M g m m y 6 h h   O - - u : [ P m : 2 r O O X ~ ",
"] i.z l p d T T + g Z : 2 5 h } M : : 7 A t.9.M ..>.y $ +     C ] i.~ l m 2.+.A V t g - 2 4 4 2 O ; t $.Z u C L #.>.y $ +     C ",
"u.s.[ 2 + d z j ( / ] M 4 f L [ H > > 4 > e 7.q.u B 0.p = , r t p.s.U 4 B A g p V p l M 4 2 r + O r p ! c m V E Z w.0.i 2 > ; p ",
"r.[ V > 5 p ~ / e.z f h < f 3.L J , > < 7 w B / E m A E $ r r j r.[ h m g p B u l r f h > r a ^ ^ s B #.-.=.Z s c 7.p.E O r i a ",
"U z d < B ~ { / > # 2 , : E C h 4 , , , > < Z s _ / 0.&.s s a u U z g M M / C V 2 r 2 , 4 / u.m C B %.V   N Z a - m B A / r r u ",
"h C d > 1 g p r $ l q O.O.B g g a m : > > 4 k ; ! A +.-.#.m m 4 h M M 4 5 M A g $ - 0 e.Z 2.m 4 C ~ j 4 , 1 k h c Z = < m : 0 4 ",
"j g u t = 4 y t j e #.O.#.w ! / q.V p t + > G M N m / m : : 0 4 p g 4 - = ,.%.t g q e %.A q ..*.t.%.< < > S ` m N A O.m : = 0 h ",
"R d - y = ; N *.#.+.N 0 0 V V ! +.c 4 u s % 2 K V 0 +.g l W u.{ R g : - ,.6.0 e #.+.M M q Z O.I B < > = < h ' U h B o.0.V l u.{ ",
"s X + t : 4 m $.N < 1 : n B M s $.n g 8 0 z y 0 l ; < l C / _ / s + o #.6.q : B %.K K %.h.w.m > > > > , , Y | K l > > M C ~ { / ",
"V n O.#.+.V u ; r 4 g V C q g V ,.w - 6 9 q 5 d g t , t j t g ( V g O.9.*.; u w >.N m 0.h.g.q > > < > > 1 d.d.H ~ , , 2 # + l ( ",
"W %.>.e.q.V N N y V Z / a t u f.I 0 6 4 > H 5 h m d < d % @ = j W %.*.+.V N g.9.9.&.q.] { / > 5 4 > > > 1 [ [ m C t = 4 X T = j ",
"C e.e.%.N a u 0 n O.n a V N t [ u.A X.O.q 3 M h M m u B j p r g / / C m N V $.N V A i./ p.+.2 [ M , , m A ` [ C A Z m I A j + g ",
"C h 4 / s n N u t N O.+.*.+.V W e.! 0.4.+.m 5 g 4 m V V M A t m V M t t l : - g u A e.%.p.e 0 4 4 C / l.a.{ u.W A A l Z I A r m ",
"d 4 +.0.2 j A A j g Z Z m n Z 1 q C / p.*.O.0 V g h $.d : g / g 2 h M 0 2 g m A +.0.%.t.0.4 4 4 C R A +.] 0.e./ W A *.t : l / u ",
"g 0 b V 4 s l u O.I z i a A 4 4 t : m M N ;.@.m g m A ! c ! W y g 0 g 4 2 u s M *.A P 0.V M 4 I / : 4 - s ~ 0.#.C ! 0.! c ! W y ",
":.b 0.] g r u >  .B J p r 1 , h f 1 y ; = w >.q.#.O.b C 0.0.l V :.b / m h r y 4 Z ,.e.V t 1 1 I q = r t g ] u.4 D V s / 0.%.l C ",
"&.) / ) l y t r 6 0 H B B m 1 J J 1 = = ; H I 0.%.A m V h #.V q.&.) / / u t - p V M K m B 4 4 K 1 : = = q r.u.m h 2.^ ! ! >.V 0.",
"c b r r t r a @.c A P g I 2.,.C J 1 > 4 2 [ I 2.m A M u M <.,.r g n r r a r s c u P C d K q 5 q S , > 4 4 f.r.A - O.n c 2.8.4.r ",
"; u r r $ i v w u 4.] - h Z 4.2.I 4 < y 4 / P B = B m V K K 8.4 = y r i $ $ O.: y 4.M : m 0 q q < < 0 u m / ` / = ; a V I 5.8.4 ",
"p l t t 2 > t - c 4.m x 7 : V I A A m d m a.] q ; C %.e.M K 2.m i b i t > 2 t : m 2.m : < 4 4 M B 4.4.! / a.{ ~ ; Z 4.e.M L 2.M ",
"y ! s p V + r > 0 A V v x < < M g l u : I I I 5 ! g.4.O.%.2.M N p ! l i l t + > 0 A m 0 6 0 : < +.g.0.V I I y./ ^ g.g.N %.2.A N ",
"2 + ! W / u = > 2 G 4 - c y 7 < K P I 4 M V M h p.j.g a Z A C m 2 O W ! ) u : > 2 G 3 - - N N A Z *.I g V C Z ^ z.j.l : Z A V M ",
"y ; 2 M V A s r p G h 4 : : v X.w q M j W ^ q.t.u.e.B m Z 0.n V : ; > M C A u y u m A 0.t.t.l.t.B K b : V 0.q.u.u.0.B b Z 0.b n ",
"A + d   2 M h ; t P H h . , 2 s @.u z I I ~ ~ I A q C g Z 0.m B A + d + 2 M h = 2 C I k.e.p.y.M O.; d g Z $.A I B M B g Z 0.m m ",
"1 2 g ~ u.[ ] q 3 P H 3 . , 2 O 0 %.I 2.I k U > < u c a V *.l ; 1 = g ~ { { I 1 3 H I I I y.5 + 0 %.M B | F U , < u s y V *.l 2 ",
"> > > 3 u.l ] I H S S + 2 , ,   d K I 2.N 4 h A u r M u 5 Q f 5 , > , 3 r.l M M K H 2.d M C > r + Z C p s.S 5 A g - m g q z f 4 ",
"8 , > > , .   C e.2.1 O = > 2 . X d 4 g C M u m g 5 l 2 N 0.A 2.q > > > > >   M e.2.q O h s u a V $.s j C 2 u V u 5 l 2 N 0./ 4.",
"8 , , > > , 2 > t ! / C 2 = 2 4 j T j % Q 2.L h < < . d H M f 4.8 , , > , > > > 2 V M C 4 j W ! >.Z E % T X + i d < 2 f H H C 2.",
"7 , > > > > > 2 t o R 0./ 0 : , 4 j i % % I I I 4 , . C 3.J Y 1 7 , , > > , = . + + p u.0.u n e.I m x $ $ O . + > , . C 3.J U 1 ",
", > > > > g j   C d T W ! ~ A u 2 1 V V g d z M 1 > > f L D J H > > > > > g l   C d i W V l 0.Z u A M ! t 2 X . , > 4 f U D J F ",
"> > > > = q u.0.q.W s p s s ] / / j 4 g h V t 2 1 > h ~ P e 1.K > > > > 2 M p.0.q.W p p i s ^ +.Z ^ $./ ~ ~ * 2 , 2 4 ~ C 8 1.J ",
"= > = > > < s p.t.g.w.q.W i ~ p.i.a.e.u : h C 4 > - u V ~ g +.P = > = > , > a p.p.$.b n V 2.I $.Z b *.B 0._ / m > - u V ~ h #.P ",
"+ ; = , > > r s A g.^ $.a r d 5 e.t.V y r - : < = r M M C e.I ` + ; = , > > r s Z *.Z A / u.m w ^ 0.t.B M I l u - r M h C e.I ` ",
"/ X O O - = u m P U ; t - ; o r h g : y m m u M A B K A C [ k.} ~ X o O - 2 : m P L ] ] ~ 4 7 e [ g c n A I 5 ; - C I A C ' a.[ ",
"z     O O t >.+.K C g Z Z r ; + = 4 5 2 : s p M A 2.2.V l Q i.I C     + O u >.O.q 9.t.C 1 0 4 q } h 4 2 u V V + % R g i l ~ i.] ",
"u r > 2 i _ w.N R ~ m m ! p r $ r r d 4 M l p l y g C B 4 U r.u.y - > > i / +.y w.w.e , 4 > < H ' K k 4 M / A W l l d + ; [ s.u.",
"j r r $ ( t.9.u a Z =.=.#.+.a ^ / y r > h d t V l Z p m m h [ r.j i r $ W / m W / B w < < < < J U 3.l , 5 j z e.] A s 1 < h [ r.",
": r i 0.A B 4 u c V w ; V %.B A V u.A : , = r d V C C M M g C U u a u j &.0.~ _ s V < = > , > 4 4 C l = , 2 X 2 / _ ~ B < j z U ",
"4 : 4 m < - Z x g Q 5 , 4 j ~ C 4 l 2.A e.4 ; $ u B q q 4 M l h 4 0 V #.-.O.A ! 2 k 4 > , : h s g m A O.Z q g $ r % g 5 > d C h "
};
